<?xml version="1.0" encoding="UTF-8" standalone="no"?>
<svg
   version="1.1"
   viewBox="0 0 1000 1000"
   width="1000"
   height="1000"
   id="svg212"
   sodipodi:docname="smudge_blk.svg"
   inkscape:version="1.4.2 (ebf0e940d0, 2025-05-08)"
   xmlns:inkscape="http://www.inkscape.org/namespaces/inkscape"
   xmlns:sodipodi="http://sodipodi.sourceforge.net/DTD/sodipodi-0.dtd"
   xmlns="http://www.w3.org/2000/svg"
   xmlns:svg="http://www.w3.org/2000/svg">
  <defs
     id="defs212" />
  <sodipodi:namedview
     id="namedview212"
     pagecolor="#ffffff"
     bordercolor="#000000"
     borderopacity="0.25"
     inkscape:showpageshadow="2"
     inkscape:pageopacity="0.0"
     inkscape:pagecheckerboard="0"
     inkscape:deskcolor="#d1d1d1"
     inkscape:zoom="0.871"
     inkscape:cx="500.57405"
     inkscape:cy="500"
     inkscape:window-width="1920"
     inkscape:window-height="1052"
     inkscape:window-x="0"
     inkscape:window-y="0"
     inkscape:window-maximized="1"
     inkscape:current-layer="svg212" />
  <path
     transform="translate(497,489)"
     d="m0 0 10 1 3 2-1 3h-2l-2 5-5 4-4 1v2l-13 5-8-1v-2h3l-1-3-5-2v3l-4-1v2h-2v-8l5-3 6-2 10 1 8 3z"
     fill="#010000"
     id="path1" />
  <path
     transform="translate(0)"
     d="m0 0h1e3v1e3h-1e3z"
     id="path2"
     style="fill:#21201e;fill-opacity:1" />
  <path
     transform="translate(249,302)"
     d="m0 0 9 5 8 5 23 14 11 7 21 9 12 8 11 5 12 6 11 4 6 1 3-2h39l5-1 29 1 18 4 12 1 13-1 12-3 8-1h31l13 5 15 6 11 2 12 1h27l20-7 22-10 30-11 21-9 16-8 15-8h6v7l-5 13-10 19-6 11-8 16-4 5-9 20-4 5-5 13-4 6-7 8-5 18-8 14-2 5v21l3 13 1 15 2 10v41l2 11 3 10v19l-4 26-4 11-2 3v9l4 2 7 6-2 2-73 2h-101l-38-2-19-2h-20l-22 2-46 1-16 1h-16l-35-1-3-4-7-22-8-20 1-23 1-3v-18l-2-21v-15l1-25 3-26 5-16 3-7 3-16 6-17 5-14v-16l-5-10-8-13-4-10-7-11-13-26-11-20-4-11-5-11-1-7z"
     fill="#A69389"
     id="path3" />
  <path
     transform="translate(252,315)"
     d="m0 0 6 1 8 4 7 4 1 2 3 1 5 8 3 1v2l4 2 6 4 7 3 7 6v3l3 1v-2h2v2h4l3 5 3 4v2l3-1 2 5 2 1v2h2l1 5h2l1 7-2 2-5 2 3 17-2 7-2 6h-3v5l-3 3-2 4-1 5 1 5h-2l-1 7-3 1-1 5-2 5h-2l2 5v3l5-1 4 1 3 1 1 1 2-1 17 2 5 3h6l2 2 5 1v2l5 1 3 4 1 4 1 5v7l1 4h-2l-1 3-11 3-20-7-9-7-4-6v-2l-6-2 2-1-1-2h-7l-1-1-5-2-4 7h-2l-2 4-2 5 1 12 1 4h-2l2 4-1 2 2 1-1 2h2l7 13 2 1v2h2v3l4-1 3 1v2l6 1v2l5 2 2 2 5 2v3l4 2 8 16 2 3 3 2 2 1 5-2-1-9-9-8-3-7-2-3h2l-1-7h2l1-4 2-1-1 3 2 1v-2l5-4h4v-3l10-2 5 1 2 2 6 2 7 1 12 4v2l4 2 1 2 7 4 2 5-1 3-9 7-6 2-6 4 1 4 3 5v2l8 1 7 3 6 4v2l4-1 11 2v3l14 2 2 1h11l10-1 7-1 4 1 2-5 2-4h-2l-1-6 3-2h6l1-2v2h3l1-7-2-1v-3l5-3 4-1h13l6-2 2-1v-4l6-2 7-1 17 2 2-1v2h2l1 2 3 2 2 6v4h-2l-1-1v2l-8 1-1 3-5 5-2 4-2 1 5 5 1 6h-2l-3 12-1 2 6 1v2l11 3-1 3 3 1 3 2v5l4-1-2 7h-4l-2-5-5 1-13 2-6-1-1 2-3-1-9 3h-5l-3 3-5 2-1 5-1 1 2 1-1 4 6 1v3h4 5l4 2 8 1-1 3 3 3-2 3h-6l-4-1-18-2v2l-3 1-2 2-2-1-1 2-9 2-2 5 1 2-4 1 19 1v1h-23l-34-3h-20l-22 2-46 1-16 1h-16l-35-1-3-4-7-22-8-20 1-23 1-3v-18l-2-21v-15l1-25 3-26 5-16 3-7 3-16 6-17 5-14v-16l-5-10-8-13-4-10-7-11-13-26-11-20-4-11z"
     fill="#94786E"
     id="path4" />
  <path
     transform="translate(304,338)"
     d="m0 0 13 2 16 10 11 5 12 6 11 4 6 1 3-2h39l5-1 29 1 18 4 12 1 13-1 12-3 8-1h31l13 5 15 6 11 2 12 1h27l20-7 22-10 9-1 13-1v3l-1 3h-4v2h-3v2l-3 1-2 2v-2h-2v2l-7 2-1 3-7 2-3 3-7 3h-2v2l-3 2h-4v3l-7 1-1 3-6 4-5 4-3 4-7 1h-3l-4 1-7 4h-3l-4 1-4 5v3l2 2v2l4 3v2l3 1h-2l1 3v4h-3l1 2-6 1v4h-2l1 10-3 3 2 5h2l5 5v2h2v5l5 1 8 4 13 1 4-1 2 1 9-1 2-1 5 3 6 7 3 2h10l3-4 8-1 2 7-1 2 4 2v9l1 3-2 2v13l-2 4 1 8 1 5-2 1 2 2-3 1v3h-2v3l-2 1-1 3h-2v6h-2v-2l-3 1v-2h2v-3l-6 1h-2l-1-4 3 1v-2h-7l1 3-1 2-5-1-5-4v-5h-2l-1-2-10-4-3-3h-11l-5-1-14-3-6-4-8-2-2-1v2l-6 3h-5l-9-3-3-2-2-1-4 3h-6v-8l3-1-1-3 1-5-1-5v-3l-3 1-2-4-3-3v-2l4-2 3-1-1-6-10-5-15-3-3-4-9-2-5 1-1-5 1-3-6-1v-2l-4-1-5-4-3-3-4 1-7-4-7-2v-2h-3l1-4 1-2-5 2h-7l1 3h-6v-2l-8-1v-2h-2l-1 2v-4h-2l1 5-1 2h-2l-4-5-9 3-9-4-2-3-3-1-3-3-9-1-3-3-1-7-2-9 1-5v-11l-5 1-3-5v-2l-12-1-1 2h-3v-2l-2-1-1-3-2-1v-5l-4-2-5-5-2-5-8-4-7-2-7-8v-2l-4-2-5-5-3-2v-2h-4z"
     fill="#C1B6B5"
     id="path5" />
  <path
     transform="translate(249,302)"
     d="m0 0 9 5 8 5 23 14 11 7 11 5v1h-6v4h4v2l4 2 1 3 4 2 10 10v2l8 1 8 5 3 6h2l3 5 3 1-1 5 3 1 3 5 8-2 7 2 3 5v2l3-1 2-2 1 2v11l-1 5 1 7 1 2v5l3 4 9 1 3 2v2l4 1 2 3 8 3 10-3v3l3 1v2h2v-7h2l1 2 7 2 3 1v2l5-1v-2l12-2-2 6 5 1 9 4 5 2 2-1 8 7 4 2v2l6 1v8l6-2 9 3 2 3 15 3 5 3 6 2 1 5-7 7 3 3 2 3h2l1 7 1 3-1 6-2 1-1 8 7-1-1-2h4l1-2v2l2 1 7 3-1 2-11 1v2l-4 1-2 2-2-1-1 3-8 4-6 7h-3v3l-11 2-3 1-2 3-9 2-11 2h-4v2l-9 3-8 3-1 3-2 2-1 3-8 2h-10l-9 1-3 3-8-1-6 1-14-4-4-6-1-3 2-4 10-5 5-3h2l1-3h2v-5l-5-5-4-2-5-5-6-3-10-1-3-2-6-2-3-2-13 1v3l-5 2-4 2v2l-3-1-2 3v6l3 8 10 10 1 9-7 3-6-5-8-16-4-4-1-3-5-2-6-4v-2l-6-1v-2l-3 1-4-1v-3h-2v-2l-3-1-6-11v-2h-2l-2-9h2v-3l-2-1-1-13h2l1-5 2-3h2l2-6 3-2 3 2h3l-1 2 7-1 3 6h2l5 8 8 6 21 7 10-3 2-3-1-7v-7l-2-4-1-3-6-3v-2h-7v-2h-7l-5-3-17-2h-3l-4-2-2 1v-2l-5 1-2-5v-3h2l3-10 2-1 1-5 1-2h2l-2-6 1-5h2l1-4 2-2 1-5h3l1-4-1-2h2v-6l1-2-3-16 4-3 3-1-1-5 1-2h-2l-1-5h-2v-2l-4-2v-3h-3l-6-8v-3h-4v-2h-2v2l-4-1-1-4-8-6-5-2-9-6v-2l-4-1-3-3-1-5-4-1v-2l-6-2-6-4-10-3-3-8z"
     fill="#BEA18C"
     id="path6" />
  <path
     transform="translate(390,546)"
     d="m0 0h8l7 4 6 7-3 5-9 4-12 2v11l3 4 2 8 7 2 4 3v2l5 1 1 2 12 3 5 2 8 1 3 1 8 1 11 1 1 3 3-1 1-2 9 1 7 2 7 1 2-6 2-1v-2l-3 1v-2l7-2 5-1 2 1v-2l8-1 1 3 5 2v2l3 1v2l9 6 13 6 1 2h2v3l-5 2h-4l-1 3-6 1-7 2-2 1-5-1-2 2-2-1v2h-3l1 4-3 3-1 13 4 8-2 4h-5l-8 7h-2l-1 4-4 2 2 2h-13l-19-2h-20l-22 2h-78l-8-1-1-3h3v-2h4l2-10-1-4 1-7 3-11v-5l-2-7-1-6-2-1v-3l-5-2-3-2v-2l-7-1v-2l-5-2-6-1-2 4-9 3-4-2 1-6h2l-1-3v-2l1-3h2l1-4-2-1-1-8 2-6 7 1 2-1v-4l-2-1 1-3-2-1 2-5v-3h2v-2l-3 1-4-2v-2l2-1 2-5h7l7 3 3 2 2 6-1 10 7 6 5 3 7 3 1 3 7 1 4 1 6-1 1-2 4-1 2-3 8-1v-7l-8-13-6-7-1-3v-7l2-2 8 1 1 5 4 4 7-1 8-5 1-3h2z"
     fill="#7A675A"
     id="path7" />
  <path
     transform="translate(535,541)"
     d="m0 0 3 1-1 4 1-1 1 2 7-2 1-2 5 1v2h5l6 6v2h2v3l6 2 2 3 3 1v3h2v2h2v4l-1 1h2v-2l5-1 2 1 1-2 2 2 5-1 6 1 1-2 2 1-1-6-8 1-1-4-2-1h2l1-3 5 1 2-1v-3l3 1 7 1 8-3 5 1v3h3l1 4 4 2-4 2-4 1 2 4-4 4-3-5-1-2-8-1-2 1 1 5v2l5 1-2 5-5 3-11 2-2 5h-3-3v-2l-3-1-4 2-2 4 6-1 3 1 5 5v7l4 3v7l-3 3h-2v2h2v2h-2v2l3-1v4h2l4 4 2 1v2h3l2 4-4 2v2l7 1h8l4 1 6-2 14 4-3 5-4 4-1 4 2 3v3l4-1 1 1h8l2-4 4-1h2l1-3 3 1 2-4 3-9h2l1-6-3-3 1-3v2h2l-3-3v-2l5-2 1-8 1-4v-10l1-1v-7l-1-5-1-9-2-1 1-3h-2v-8l3-9 3-3 2 1v24l2 11 3 10v19l-4 26-4 11-2 3v9l4 2 7 6-2 2-73 2h-101v-2h-22l3-2 3-1v-3l2-4 9-2 5-3h3v-2h12l8 1 6 1 2 1 1-4-4-4-5-2-1 2v-2l-8-2-1 2-4-4-5-2 1-4-3-1 3-6 5-3h2l1-3h6l9-3h3 9l10-2 6-1 2 6 3-1 1-5h-3v-5l-4-1-2-4-10-4v-2h-7l3-10 3-6-1-5-5-6 4-4v-2l7-7h8v-2l-2-1h2l1-2v4h2l-3-10-3-2v-2h-4l-17-2-12 2v4l-1 2-4 1-10 1h-7l-5 2-4 1 2 6-1 5-10 1-3 1 2 1-1 5h2l-2 5-2 4h-9l-2 1-15 1h-7l-1-1-14-3-2-2-9-2h-4l-1-2-5-3v-3h9l5 1 3-3 9-1h9l8-1 1-6h2v-3l8-2 2-2 8-1v-2l8-2 10-1 6-2 2-3 10-2 2-2v2h2v-3h3l2-4 5-5z"
     fill="#A38B79"
     id="path8" />
  <path
     transform="translate(678,359)"
     d="m0 0h7v3l-1 3h-4v2h-3v2l-3 1-2 2v-2h-2v2l-7 2-1 3-7 2-3 3-7 3h-2v2l-3 2h-4v3l-7 1-1 3-6 4-5 4-3 4-7 1h-3l-4 1-7 4h-3l-4 1-4 5v3l2 2v2l4 3v2l3 1h-2l1 3v4h-3l1 2-6 1v4h-2l1 10-3 3 2 5h2l5 5v2h2v5l5 1 8 4 13 1 4-1 2 1 9-1 2-1 5 3 6 7 3 2h10l3-4 8-1 2 7-1 2 4 2v9l1 3-2 2v13l-2 4 1 8 1 5-2 1 2 2-3 1v3h-2v3l-2 1-1 3h-2v6h-2v-2l-3 1v-2h2v-3l-6 1h-2l-1-4 3 1v-2h-7l1 3-1 2-5-1-5-4v-5h-2l-1-2-10-4-3-3h-11l-5-1-14-3-6-4-8-2-2-1v2l-6 3h-5l-9-3-3-2-2-1-4 3h-6v-8l3-1-1-3 1-5-1-5v-3l-3 1-2-4-3-3v-2l4-2 3-1-1-6-10-5-15-3-3-4-9-2-5 1-1-5 1-3-6-1v-2l-4-1-5-4-3-3-4 1-7-4-7-2v-2h-3l1-4 3-6 3-1 4-8 2-1 2-3 6-3 5 2v8l4 3-2 1 1 7h1l3 11 3 1 1-1h7l4 4h10l2 3 8 3-1 4-4 1-3-2 1 3 5 1 4 1v2h2v3l7 2 4 2 1 2 10 3 6-1 8 2 4 2 1-2-3-1 1-8-4-6-2-2-3 1-1-6h2l-2-6h-2v-3l-6-1-6-3 1-5h2l1-7 4-4v-5l-2-1-1 5-2-1-1-2-2-1v-4l11-2 2 2 4-4 6-3v-2h2v-2h5l2-3-1-2 4-2 1-3-3-3h6v-2h16l6-5h3v-5l3-3-1-3-6-1v-1l5-1v-2l-8-1v-1l20-1 20-7 22-10 9-1z"
     fill="#BAA8A2"
     id="path9" />
  <path
     transform="translate(734,343)"
     d="m0 0h3l2 5-2 7-3 5h-3l-2 6h-3l1 3-3 1v5l-2 4h-2l-2 4-4 1-2-2-2 3h3v3l3 1-1 7-4 9-3 2-5-6v-3l-2 2-1 5h-2l1 3-5 1h-2l-4 7-3 1-2-1 5 10 1 8 1 2h3l-1 5-3 1v3h-2v2l-3 1v-2l-4-1 1 4h-2v7l-3 2h-2l-2 4 1 2-2 5-2-2-3 1-1 9-2 5-5 1-1 4h-2l-1 4-5 1-1-4-4-2-3-3-4-8-2-1v-2l-4-1-3-7v-4h-3l-1-4 4-5-2-4-2-1-1-3-4 2-2-8 3-1-4-1-5-3-8-4h2l-1-3h2l1-8 1-3 3-1 1-5 5-5 1-2 7-4 3-1 1-4h7v-3l7-2v-2l9-3 1-2 5-3h4l1-4 7-1v-2h2v2l9-1 1-3 5-2 5-1 1-3 4-1 1-3 5-1v-2l7-3h6v-2l3-1 1-2 6-2z"
     fill="#94796F"
     id="path10" />
  <path
     transform="translate(745,325)"
     d="m0 0h6v7l-5 13-10 19-6 11-8 16-4 5-9 20-4 5-5 13-4 6-7 8-5 18-8 14-2 5-1 19h-1l-2-6-2-1-1-9-8 2-3 4h-10l-9-8v-2l-6-2-2 1-9 1-3-1-4 1-11-1-9-5-4-1v-5h-2l-9-9-1-3 3-5v-8h2v-4h2l1-3v2l2-1-1-2h3l-1-3v-4l-5-5-2-4 1-4 4-5 6-2h3l4-2 2-2 6-1v2l5-1 1 2-2 4h-3l-2 11-1 3 6 4 1-2v3l5 2 3 1-1 2v1 6l4-3 1 4 3 1v3l2 1-4 5v4h3l4 11 3 1v2l4 2 2 4v3l3 1 4 4 2 3 4-1 1-3h2l1-4 5-1 1-5 2-9h2l1-3 1 2 2-3-1-4h2l1-3 4-1 1-7h2l-1-4 7 2v-2h2v-3l3-2-1-2-3-2v-7l-4-10-1-3 5-1 4-8 5 1 1-3h2v-6l3-1 1-2 1 4v2l4 4 3-5 3-7v-5l-3-3-3-1 4-4 2 2 4-2 1-2h2l1-9 3-2v-2h3l1-6 5-2 2-4 1-8-1-3-11 3-6 1-1 3h-3v2l-7 1-3 2h-3v2l-5 2-3 3h-2l-1 4-5 1-5 2-1 2-8 1 1-3h3v-2h3v-2h4l1-5h-7l-6 1-3-2 24-9 21-9 16-8z"
     fill="#A69389"
     id="path11" />
  <path
     transform="translate(539,557)"
     d="m0 0 14 1 5 1 2-1v2h2l1 2 3 2 2 6v4h-2l-1-1v2l-8 1-1 3-5 5-2 4-2 1 5 5 1 6h-2l-3 12-1 2 6 1v2l11 3-1 3 3 1 3 2v5l4-1-2 7h-4l-2-5-5 1-13 2-6-1-1 2-3-1-9 3h-5l-3 3-5 2-1 5-1 1 2 1-1 4 6 1v3h4 5l4 2 8 1-1 3 3 3-2 3h-6l-4-1-18-2v2l-3 1-2 2-2-1-1 2-9 2-2 5 1 2-4 1 19 1v1h-23l-10-2v-1l10-2 1-4 7-6 4-2 5-1-2-7-2-5 1-11 2-3h2l-1-4h3v-2l5-2 5 1 2-2 10-1 6-5 1 2 5-2v-3l-3 1-4-4-14-7-6-4 1-2-2-1v-2l-5-2-1-2h-8v2l-7 1-2 1-6-1-3 2-5 1-4-2h-5l-2 3-5 1-3-1v-2h2v-2l-4 2-7 1-2-1-1 3h-4l-1-3 2-1 2-3 2-1h18l10-1 7-1 4 1 2-5 2-4h-2l-1-6 3-2h6l1-2v2h3l1-7-2-1v-3l5-3 4-1h13l6-2 2-1v-4l6-2z"
     fill="#927E6E"
     id="path12" />
  <path
     transform="translate(280,559)"
     d="m0 0h1l1 7 2-1h1l4-1-2 4 4-1-1-3 1-2h2l1 6-1 2 4-2-1-4 2-2v2l7 1v2h-2l1 5-2 3 3 9-3 2-6-1-2 5v8l3 1-2 4-2 2v3 3h-2l-1 6 3-1 1 2 9-3 2-3h6l6 4 4 1 4 3 6 4v3l3 1 2 12 1 1-1 8-3 11v7l1 3-3 8h-4v2l-2 1v2h41l-1 2-16 1h-16l-35-1-3-4-7-22-8-20 1-23 1-3v-18l-2-21z"
     fill="#927E6D"
     id="path13" />
  <path
     transform="translate(672,504)"
     d="m0 0 2 2 3 13 1 15 2 10v17l-2 4-1-4-3 7-2 12h2l1 4 2 9 1 5v7l-1 5v11l-1 3-2 5-5 1 3 3v2l-2 1v2l3 1-2 6h-2l-2 9-3 4-3 1-3 3-4-1-1 5h-9l-5-1-1-5-2-1 3-7 5-5 1-19h-6l-5 1 1-4 2-2-2-3v-3l-3-1v-1h-1v-9l2-8v-3h3l-1-3 3-10 9-3 1-4-3-6 1-4-1-4h-2l2-6v-2l5-1 2 1v2l-2 1v2l6-1h2v3l1 1v2h2l-1-8 1 2h2l1-4h2v-3l2-1v-3-3h3l-2-7-1-8 2-5v-11l2-1-1-4z"
     fill="#969399"
     id="path14" />
  <path
     transform="translate(678,359)"
     d="m0 0h7v3l-1 3h-4v2h-3v2l-3 1-2 2v-2h-2v2l-7 2-1 3-7 2-3 3-7 3h-2v2l-3 2h-4v3l-7 1-1 3-6 4-5 4-3 4-7 1h-3l-4 1-7 4h-3l-4 1-4 5v3l2 2v2l4 3v2l3 1h-2l1 3v4h-3l1 2-6 1v4h-2l1 10-3 3 2 5h2l5 5v2h2v5l5 1 8 4 13 1 4-1 2 1 9-1 2-1 5 3 6 7 3 2h11v2h-2v2l-4 1-5-1-4-2v-2l-7-2-4-2-2 6-6 1-2-4 3-1v-3l-14 1-5-2-5-1-1 2-6 1-6-2-7-3h-6v4l-4 1-3-2 1-8-4-6-2-2-3 1-1-6h2l-2-6h-2v-3l-6-1-6-3 1-5h2l1-7 4-4v-5l-2-1-1 5-2-1-1-2-2-1v-4l11-2 2 2 4-4 6-3v-2h2v-2h5l2-3-1-2 4-2 1-3-3-3h6v-2h16l6-5h3v-5l3-3-1-3-6-1v-1l5-1v-2l-8-1v-1l20-1 20-7 22-10 9-1z"
     fill="#B9A7A0"
     id="path15" />
  <path
     transform="translate(572,483)"
     d="m0 0h8l9 4h4v2h3l1-3v2h2l1-3 3 1 2-1 1 2 9 1h9v3l-2 1 1 3h6l1-7h4l1 2 7 3v2h5l8 2v-2h2l1-5 4-2h5l2 7-1 9 1 6-2 4v3h-3l-2 4-1 3 2 1-3 4h-2v3l-6 5-4-1-5 2h-3v2l-5 1-2-1v-2l-10-1-3-3h-7l-1 2-3-2-1-5-2-1v-3l-2-1v-2l-3-2v-2l-6-3v-3h-2v2h-4l1 3-6-2 2-1-1-5-5-2-2 3-2-1-1 2h-3v2l-5-1-1-5v-3l-2-2-1-3 2-3-1-3 4-1 2 1 2-5 2-4z"
     fill="#C1B6B5"
     id="path16" />
  <path
     transform="translate(326,367)"
     d="m0 0 3 3v2l2 1v2h2l1 5h2l1 7-2 2-5 2 3 17-2 7-2 6h-3v5l-3 3-2 4-1 5 1 5h-2l-1 7-3 1-1 5-2 5h-2l2 5v3l5-1 4 1 3 1 1 1 2-1 17 2 5 3h6l2 2 5 1v2l5 1 3 4 1 4 1 5v7l1 4h-2l-1 3-11 3-20-7-9-7-4-6v-2l-6-2 2-1-1-2h-7l-1-1-5-2-4 7h-2l-2 4-2 5 1 12 1 4h-2l2 4-1 2 2 1-1 2h2l7 13 2 1v2h2v3l4-1 3 1v2l6 1v2l5 2 2 2 5 2v3l4 2 8 16 2 3 3 2 5 1-2 2-8 1-1 2-5-2v-3l-4-1-5-6-2-2v-2l-4-1-1-2-3-1v-2h-2l1-4h-3v-2h-2l-1-2-3-1v-2l-3 1-9-6-1-6-2-1-4-4h-2l-1-2-5-3 1-17 1-4h2v-11l4-9 1-5 2-1 1-4 2-10 3-5h2l1-7 2-9 1-1v-5l3-1 1-9 2-3 2-6 3-2 1-4 2-1 1-5-3-7-2-7 2-9 4-6h2v-4h-2l-1-7-3-1z"
     fill="#A38B79"
     id="path17" />
  <path
     transform="translate(381,598)"
     d="m0 0 10 3 18 6 1 2 7 2 8 3 12 2 2 2 8 3 5 3 6 2 10 1 4-3-1-3 3-1h18l5 1-1-4 9-1v2h2v2h-2l1 4-3 2h-6l-4-2-1 8-3-1v2l-4 4-6 2h-22l-15 1-5-1h-8l-7-2-4-4v-2h-4l-1-3-14-1-3-2-11 1h-10l1 4-3 1-2 4-17 3-3 1-2-1v-2h-2l-1-4h-2l-2-5-1-4h-2l-1-6h-3l-2-5v-6l5-1 7 3v-2l4-2 4-3 4-1 4 1h10l5-2 5 1z"
     fill="#5D4841"
     id="path18" />
  <path
     transform="translate(677,560)"
     d="m0 0 3 1v24l2 11 3 10v19l-4 26-4 11-2 3v9l4 2 7 6-2 2h-31l-2-1h-22l-20 1h-20l-4-11 2-11-2-2 6-6 6 1 2-3 7-2 11 1h2l2-3 4-4 6-2 14 4-3 5-4 4-1 4 2 3v3l4-1 1 1h8l2-4 4-1h2l1-3 3 1 2-4 3-9h2l1-6-3-3 1-3v2h2l-3-3v-2l5-2 1-8 1-4v-10l1-1v-7l-1-5-1-9-2-1 1-3h-2v-8l3-9z"
     fill="#868183"
     id="path19" />
  <path
     transform="translate(370,531)"
     d="m0 0h6l4 3 6 2 7 1 12 4v2l4 2 1 2 7 4 2 5-1 3-9 7-6 2-6 4 1 4 3 5v2l8 1 7 3 6 4v2l4-1 11 2v3l14 2v1l-5 1-5 5v2l4-1 1-2 4 1 1-2h5l3-1v2h-2v2h8l2-4h7l2 2 7-2 4-1 1 2h-3l3 1-2 8-5 2-10-2-4-1-6-1-1 3-3-1-1-2-14-1-7-1-6-2-6-1-15-5v-2l-5-1-4-4-7-2h-1l-1-8-2-1-2-4v-9l3-3 13-3 7-4 1-3-5-6-7-4-8-1v2h-2l-1 5-5 2-7 3-5-1-4-5 1-4h-8l-1 1v7l3 5 6 8 6 10-1 7-8 1-2 4-8 3-5 1-9-3-2-4 1-2h2v2l9 2v2h5v-2l-9-3-3-3-4-2v-3l-5-2-2-2v-3h-2v-5l5 1v3l6 7 3 1 1 3 4 1 9-3h2v-2l2-1-1-9-9-8-3-7-2-3h2l-1-7h2l1-4 2-1-1 3 2 1v-2l5-4h4v-3z"
     fill="#95796F"
     id="path20" />
  <path
     transform="translate(482,476)"
     d="m0 0 2 2v3l4-1h7l7 1 5 1 11 3 11 2 2 4h2v4h-2v2l-3 2-9 3-6 4-12 6-15 6-15 2-9-2h-6l-4-2v2l-9-1-5-5 2-6 4-6 6-4h2v-2l6-5 11-5 4-1 2-4z"
     fill="#A48C7A"
     id="path21" />
  <path
     transform="translate(390,404)"
     d="m0 0h3v3l6 2 5 2 7 5 4 2 6-1 7-3 4-2 5 1 3 2v6l6 2 2 1v-2h4l4-1 5-2 6-1 4 2 2 4-1 3-2 3h-2l-1 4-3 5-3 1-4 4-3 1h-7l1 3h-6v-2l-8-1v-2h-2l-1 2v-4h-2l1 5-1 2h-2l-4-5-9 3-9-4-2-3-3-1-3-3-9-1-3-3-1-7-2-9 1-5 1-3h5z"
     fill="#CFBCAD"
     id="path22" />
  <path
     transform="translate(393,624)"
     d="m0 0 4 1 2 1 14 1 1 4h4l4 5 7 2h10l3 1v2h-8l2 2h3l2 1-4 3-7 1 6 3 1 4h-3l-4 1-2 4v3l1 2h-5v-2l-3 1v-3h-13l-4-1 1 6-7 1-3 3-5-1-5-3h-7l-2-2 2-3h3v-2h4l1-3-10-1-2-1-1 2-3-1-2-4 1-4 2-4h-8l-3 3-1-3 2-3 7 1v-3h-6l-2-2 11-2 4-4v-4z"
     fill="#8B6C5E"
     id="path23" />
  <path
     transform="translate(745,325)"
     d="m0 0h6v7l-5 13-10 19-6 11-8 16-4 5-9 20-4 5-5 13-4 6-7 8-5 18-4 7h-3l-2 1-1-5v-1h-3l1-4-1-4h2l1-3 4-1 1-7h2l-1-4 7 2v-2h2v-3l3-2-1-2-3-2v-7l-4-10-1-3 5-1 4-8 5 1 1-3h2v-6l3-1 1-2 1 4v2l4 4 3-5 3-7v-5l-3-3-3-1 4-4 2 2 4-2 1-2h2l1-9 3-2v-2h3l1-6 5-2 2-4 1-8-1-3-11 3-6 1-1 3h-3v2l-7 1-3 2h-3v2l-5 2-3 3h-2l-1 4-5 1-5 2-1 2-8 1 1-3h3v-2h3v-2h4l1-5h-7l-6 1-3-2 24-9 21-9 16-8z"
     fill="#878184"
     id="path24" />
  <path
     transform="translate(390,546)"
     d="m0 0h8l7 4 6 7-3 5-9 4-12 2v11l3 4 2 8 7 2 4 3v2l5 1 3 4h-5l4 3-4 1-9-3-11-3-4-2-4 2h-3l-6 1h-10l-5-1-3-3h3v-2h-8v-2l-2-1 7 1 6-1 1-2 4-1 2-3 8-1v-7l-8-13-6-7-1-3v-7l2-2 8 1 1 5 4 4 7-1 8-5 1-3h2z"
     fill="#8E6458"
     id="path25" />
  <path
     transform="translate(316,424)"
     d="m0 0 2 1-1 5-3 11-2 1v6h-2l-1 9-2 7h-2l-2 5-2 10-2 5h-2v5l-4 9-1 11h-2l-1 21 10 6 3 4v3l3 1h-2v2l5 2 5 3h2v2l4 1v2h2v2h3l-1 4h2v2l4 1 2 5-1 2h2l2 4 5 3 1 3 5 3 3 2 2-1 1 2 3 1 1 3h-5v-2h-5l-4-2-1-1-4 1-7-3-8-6-2-4 1-10-3-5-7-2-1-1-7-1-1 6h-4l-1 5 2 1-5 2-1-6 1-2h-2v5l-4 1v-3l-3 4-1-3-2 2v-34l3-26 5-16 3-7 3-16 5-12 5-1v-2l3-3 2-11 4-10z"
     fill="#927E6E"
     id="path26" />
  <path
     transform="translate(288,328)"
     d="m0 0 5 1 16 8 2 2h-6v4h4v2l4 2 1 3 4 2 10 10v2l8 1 8 5 3 6h2l3 5 3 1-1 5 3 1 3 5 8-2 7 2 3 5v2l3-1 2-2 1 2v11l-1 5 1 7 1 2-1 9-4 1-3-2 1-3-5-1-2-5h-3l1 3h-2l-2-3h-5l1-4-4-1v-6h-3l-1 2h-2l-7-8-1-5 1-3-2-1 1-8 1-5 1-6-3-4-1-3-15-6-9-11-7-6-11-6-10-6v-2h-2z"
     fill="#BAA7A1"
     id="path27" />
  <path
     transform="translate(384,604)"
     d="m0 0h7l12 5 8 4 10 3v2l6 1v2l4 1 1 2h3v2l5 1 9 5v1l-8 1h-7l-8 1-10-10v-3h-45l-7 6h-5l-4-5h-2v-2h-2l1-11h2l1-3 3-2h17 3z"
     fill="#3E1F1F"
     id="path28" />
  <path
     transform="translate(609,408)"
     d="m0 0 4 1-2 5h-3l-2 11-1 3 6 4 1-2v3l5 2 3 1-1 2v1 6l4-3 1 4 3 1v3l2 1-4 5v4h3l4 11 3 1v2l4 2 1 3-3 1-1-2-8-2v-2h-2v2h-5l-3-3-1-2-4-1-2-5-5-1-2 2h-2v-2l-3-1-2-6-4-1h2v-5h2l1-5 1 3 4-1v-2l6-4-5-3v-2l-5-2-1-4-3-1-3-11 5-2 1-2 6-2 2-4z"
     fill="#A38C7A"
     id="path29" />
  <path
     transform="translate(495,487)"
     d="m0 0h10l12 3 3 2-1 3-7 5h-2v2l-9 6-15 6h-21l-9-2-6-4 2-6 11-7 12-4 5-1 2 5 10 1 2 1-3-9z"
     fill="#3C1E1E"
     id="path30" />
  <path
     transform="translate(641,581)"
     d="m0 0 7 1 5 3h5l1 1v6l5-1-2 4 3 3-1 3-1-2-2 3 3 1-1 6h-2l2 5-2 2-1 4h-3l-1 2h-3l-4 1h-3l-2 4-7 2h-3l1-4 2-2-2-3v-3l-3-1v-1h-1v-9l2-8v-3h3l-1-3 3-10z"
     fill="#A69FA3"
     id="path31" />
  <path
     transform="translate(605,650)"
     d="m0 0 12 1h4l1 4 2 2-3 6v6l-2 4 1 9-11 2h-20l-4-11 2-11-2-2 6-6 6 1 2-3z"
     fill="#937F6E"
     id="path32" />
  <path
     transform="translate(249,302)"
     d="m0 0 9 5 8 5 23 14v3l-2 5h2l3 3 14 8 6 4 9 8 6 8 9 3 5 3 4 5 1 4-1 8-1 4-5 4h-2l-1 6-5 1-2-12 4-3 3-1-1-5 1-2h-2l-1-5h-2v-2l-4-2v-3h-3l-6-8v-3h-4v-2h-2v2l-4-1-1-4-8-6-5-2-9-6v-2l-4-1-3-3-1-5-4-1v-2l-6-2-6-4-10-3-3-8z"
     fill="#A79489"
     id="path33" />
  <path
     transform="translate(280,559)"
     d="m0 0h1l1 7 2-1h1l4-1-2 4 4-1-1-3 1-2h2l1 6-1 2 4-2-1-4 2-2v2l7 1v2h-2l1 5-2 3 3 9-3 2-6-1-2 5v8l3 1-2 4-2 2v3 3h-2v4h-3l-1 13-3 9h-2l-2 2 1-23 1-3v-18l-2-21z"
     fill="#86746D"
     id="path34" />
  <path
     transform="translate(668,497)"
     d="m0 0 4 2v9l1 3-2 2v13l-2 4 1 8 1 5-2 1 2 2-3 1v3h-2v3l-2 1-1 3h-2v6h-2v-2l-3 1v-2h2v-3l-6 1h-2l-1-4 3 1v-2h-7l1 3-1 2-5-1-5-4v-5h2l2-4 1-6 8-3 5 1 3-4h2l1-5 3-2-1-4 2-4 2-2v2l2-2v-3l1-4-1-6z"
     fill="#A69FA4"
     id="path35" />
  <path
     transform="translate(539,557)"
     d="m0 0 14 1 5 1 2-1v2h2l1 2 3 2 2 6v4h-2l-1-1v2l-8 1-1 3-5 5-2 4-2 1 5 5 1 6h-2l-3 12-1 2 6 1v2l11 3-1 3 3 1 3 2v5l4-1-2 7h-4l-2-5-3-1-1-5-3-1-1-4-11-3-9-4-2-4-2-1-1-3h-5l-3-3v-2h3l1-4 5-2 2 2-2 4-2 2 5 1 3 2 4 4 2-2-1-7 2-3 1-6h-2l-1 2-2-3v-4h2l-1-4-1-2 4-1-1-9h3l1-9 5 2 1 5h3v-5l-9-3-3 1-10-2-1 2-3-2 2 3-1 3-1 2h-7v-3l3-1v-4l6-2z"
     fill="#9A8274"
     id="path36" />
  <path
     transform="translate(393,624)"
     d="m0 0 4 1 2 1 14 1 1 4h4l4 5 7 2h10l3 1v2h-9l-9 1-5-1-5 1h5l-1 3-1-2h-2l-1 2h-3l-7 2-9-3h-2l-1 3h-2v-2l-6 1-3-1 1-4 2 1 7-1 2 1v-2l3-1-12-1h-22l-2-2 11-2 4-4v-4z"
     fill="#8E6458"
     id="path37" />
  <path
     transform="translate(745,325)"
     d="m0 0h6v7l-3 7-7-1-2-3-3 1v2l-10 5h-3l-1 4h-2l-1 3h-3v2l-7 1-3 2h-3v2l-5 2-3 3h-2l-1 4-5 1-5 2-1 2-8 1 1-3h3v-2h3v-2h4l1-5h-7l-6 1-3-2 24-9 21-9 16-8z"
     fill="#A39187"
     id="path38" />
  <path
     transform="translate(577,663)"
     d="m0 0h3l2 2 5 1-1 7 3 11 40-2h29v1l-7 2-40 1h-53v-3l2-3h5v-2l-6-1 1-3-2-2h5v-2h2l1-5 6-1h3z"
     fill="#9A8273"
     id="path39" />
  <path
     transform="translate(331,479)"
     d="m0 0h8l18 6 6 3 1 2v8l-3 5-7 1-10-3-5-3-3-4-2-5-4-9z"
     id="path40" />
  <path
     transform="translate(734,343)"
     d="m0 0h3l2 5-2 7-3 5h-3l-2 6h-3l1 3-3 1v5l-2 4h-2l-2 4-4 1-4-4 1-3 2 1v-2h-2l1-3h2l5-2 1-3h-2l-1 2-1-4-5-2 1-6 3-2h3l1-4h3v-2l4-1 1-4z"
     fill="#86756E"
     id="path41" />
  <path
     transform="translate(486,485)"
     d="m0 0h15l18 3 5 3-2 6-9 3v2h-2v2l-10 6-14 5-3 1h-17l-11-1-4-2-6-2-1-5 3-5 5-4h3v-2l15-6 7-2zm9 2-4 2 3 8-6-2h-6l-2-5-5 1-12 4-11 7-2 6 8 5 7 1h21l17-7 7-5v-2l5-2 5-4-1-3-9-3-5-1z"
     fill="#8B685B"
     id="path42" />
  <path
     transform="translate(412,598)"
     d="m0 0 9 1h4l1 2 3 1 2-4 6 2 6-1 2 1-1 3-3 3v2l4-1 1-2 4 1 1-2h5l3-1v2h-2v2h8l2-4h7l2 2 7-2 4-1 1 2h-3l3 1-2 8-5 2-10-2-4-1-6-1-1 3-3-1-1-2-14-1-7-1-6-2-6-1-9-3v-3l-4-1z"
     fill="#94796F"
     id="path43" />
  <path
     transform="translate(329,474)"
     d="m0 0h7l14 3v2l11 2v2l4 2 3 3 1 8-3 8-4 3-12-1-10-4-6-4-7-9-1-5h-2l-1-6 1-2zm2 5-1 2 7 14 5 5 7 3 8 1 5-2 2-4v-8l-3-3-12-5-10-3z"
     fill="#8C685B"
     id="path44" />
  <path
     transform="translate(420,363)"
     d="m0 0 29 1 18 4v1l-12 1-5-1h-29l-5 1h-37l-8 1-6-4v-2l8 1 3-2h39z"
     fill="#978882"
     id="path45" />
  <path
     transform="translate(326,367)"
     d="m0 0 3 3v2l2 1v2h2l1 5h2l1 7-2 2-5 2 3 17-2 7-2 6h-3v5l-5 2-5 8-1-4 2-3 2-6 3-2 1-4 2-1 1-5-3-7-2-7 2-9 4-6h2v-4h-2l-1-7-3-1z"
     fill="#A48C7A"
     id="path46" />
  <path
     transform="translate(333,471)"
     d="m0 0 11 1 5 3h6l2 2 5 1v2l5 1 3 4 1 4 1 5v7l1 4h-2l-1 3-11 3-20-7-9-7-4-6v-2l-6-2 2-1-4-6 2-6zm-4 3-5 2-1 6 1 2h2l1 5 7 9 7 5 9 3 12 1 5-5 2-6-1-8-5-5h-2v-2l-11-2v-2l-14-3z"
     fill="#9D8575"
     id="path47" />
  <path
     transform="translate(581,423)"
     d="m0 0 3 2v2l4 3v2l3 1h-2l1 3v4h-3l1 2-6 1v4h-2l1 10-3 3 2 5h2l5 5v2h2v5l4 1-2 2-5-1v-2h-2l-1-4-7-6-4-2-1-6h2v-2l-2-1 1-8-3-2 1-3h3v-2l7-2 3-2-1-4 1-2h-2l-2-4v-3z"
     fill="#BEA18D"
     id="path48" />
  <path
     transform="translate(640,405)"
     d="m0 0 1 3h2l1-2 2 1v2h-2v7l-1 1 2 3v3h-3l-1 4-1-4-1 3-4 1h-9v2h-3l-2-5-1-5 3-6 4-2h3v-3l9-1z"
     fill="#8A6C5E"
     id="path49" />
  <path
     transform="translate(670,370)"
     d="m0 0h2l1 4h-2l-1 3h-2l-3 5-14 7-7 2v2h-2v2l-11 4-5 1-5 5-6 2 3-6 7-4 3-1 1-4h7v-3l7-2v-2l9-3 1-2 5-3h4l1-4 7-1z"
     fill="#9F8777"
     id="path50" />
  <path
     transform="translate(249,302)"
     d="m0 0 9 5 8 5 23 14v3l-2 5-8-5-3-3-20-10-5-1-3-8z"
     fill="#9D8B83"
     id="path51" />
  <path
     transform="translate(309,665)"
     d="m0 0 6 1-1 3 6 2 1 12h-13l-3-2v2h-9l-1-5 5-6 2-2h4l-1-3z"
     fill="#7A675B"
     id="path52" />
  <path
     transform="translate(455,494)"
     d="m0 0 3 1h-2v2l-5 3-4 4-1 6 6 2 4 2 11 1h17l15-5 9-5 3-1v-2h2v-2l5-1-4 4h-2v2l-4 4-11 5-11 4-15 2-9-2h-6l-4-2v2l-9-1-5-5 2-6 4-6 8-5z"
     fill="#A28A79"
     id="path53" />
  <path
     transform="translate(495,487)"
     d="m0 0h10l12 3 3 2-1 3-7 5h-2v2l-9 6-15 6h-21l-9-2-6-4 2-6 11-7 12-4 5-1 2 4-12 2-10 4-3 3h-2l-1 5 3 2 17 2h11l16-7 5-3 1-2h2l1-3h2v-2l3-1 1-2-13-3h-6v8l-3 3-11-4v-1l9 1 2 1-3-9z"
     fill="#5D4841"
     id="path54" />
  <path
     transform="translate(621,436)"
     d="m0 0 8 6 4 10 1 12h2l3 9 4 1v3l4 9 8 2-1 3-5 1-1-4-4-2-3-3-4-8-2-1v-2l-4-1-3-7v-4h-3l-1-4 4-5-2-4-2-1-1-3-4 2-2-8z"
     fill="#9A8274"
     id="path55" />
  <path
     transform="translate(501,473)"
     d="m0 0 9 2 3 4 15 3 5 3 4 1-1 7h-3v-2h-2l-2-3-19-4-7-1-8-2h-11l-1-4 7-1 3-2h7z"
     fill="#A7948A"
     id="path56" />
  <path
     transform="translate(636,590)"
     d="m0 0 7 1 3 5-3 10 2 1h-2l1 5-2 3-2 1v4h-2l-1 2-2-2v-3l-3-1v-1h-1v-9l2-8v-3h3l-1-3z"
     fill="#B9A8A2"
     id="path57" />
  <path
     transform="translate(692,440)"
     d="m0 0 3 1-6 7-5 18-4 7h-3l-2 1-1-5v-1h-3l1-4-1-4h2l1-3 4-1 1-7h2l-1-4 7 2v-2h2v-3z"
     fill="#878082"
     id="path58" />
  <path
     transform="translate(675,654)"
     d="m0 0h2v8l-2 3v9l2 1v3l-7 1-1-2h-5l-1-4-2-1-3-6h2l3-3 7-4h2l1-4z"
     fill="#85736C"
     id="path59" />
  <path
     transform="translate(700,382)"
     d="m0 0 5 1v2h-2v2l4-1 1-2 5 1v3l3 1-1 7-4 9-3 2-5-6 1-2-2-8v-4l-5-1 1-3z"
     fill="#86756D"
     id="path60" />
  <path
     transform="translate(322,426)"
     d="m0 0 3 1-4 6-1 5 1 5h-2l-1 7-3 1-1 5-2 5h-2l1 5-2 2-4-1v-3h2l1-7 2-9 1-1v-5l3-1 1-5 5-8z"
     fill="#A69389"
     id="path61" />
  <path
     transform="translate(739,334)"
     d="m0 0 2 4 7 1-5 12-7 13-2-3 2-4 2-11-1-3-11 3-4 1 1-4 10-5h3v-2z"
     fill="#888385"
     id="path62" />
  <path
     transform="translate(415,589)"
     d="m0 0 6 1 1 3 4-1 11 2v3l14 2v1l-6 1-4-1h-4l-1 3v-3l-5-1-2 3-4-1-3-3-1 3-7-2-4-2 3-1 2-5z"
     fill="#9B8274"
     id="path63" />
  <path
     transform="translate(629,682)"
     d="m0 0h29v1l-7 2-40 1h-49l2-2 12-1h35z"
     fill="#9C8A81"
     id="path64" />
  <path
     transform="translate(331,479)"
     d="m0 0h8l18 6 6 3 1 2v8l-3 5-7 1-10-3-5-3-3-4-2-5-4-9zm6 3-1 6 3 4 2 5 10 5h8l3-6v-6l-8-4-10-4-5 1z"
     fill="#3E1F1F"
     id="path65" />
  <path
     transform="translate(640,385)"
     d="m0 0h3v2l-3 2h-4v3l-7 1-1 3-6 4-5 4-3 4-7 1-5-1v-2l8-4h2l2-4 4-2 3-3 4-3h5l2-2h6l1-2z"
     fill="#BFA28D"
     id="path66" />
  <path
     transform="translate(273,324)"
     d="m0 0 6 3 1 2 5 3 4 2 3 3 14 8 1 3 4 2 5 5v2h-2v-2h-2v2l-4-1-1-4-8-6-5-2-9-6v-2l-4-1-3-3-1-5-4-1z"
     fill="#A18978"
     id="path67" />
  <path
     transform="translate(288,328)"
     d="m0 0 5 1 16 8 2 2h-6v4h4v2l4 2 1 4-11-7-14-8v-2h-2z"
     fill="#B5A29A"
     id="path68" />
  <path
     transform="translate(326,367)"
     d="m0 0 3 3v2l2 1v2h2l1 2v6l-3 3h-4l-1 5-1 3 3 9v10l-3-3-2-6-2-7 2-9 4-6h2v-4h-2l-1-7-3-1z"
     fill="#9B8375"
     id="path69" />
  <path
     transform="translate(290,656)"
     d="m0 0h3v3l5 2 3 3 4 2 1 4-2 2h-4l-2 5-3 1-4-9-3-11h2z"
     fill="#87756D"
     id="path70" />
  <path
     transform="translate(684,390)"
     d="m0 0 3 2v2l7 2 3 5 1 3h-4-9l-1-3-4-1v-2h-4l-1-5 3-2h5l1 2z"
     fill="#9A8275"
     id="path71" />
  <path
     transform="translate(745,325)"
     d="m0 0h6v7l-3 7-7-1-2-3-5 1v-3l5-5z"
     fill="#999499"
     id="path72" />
  <path
     transform="translate(376,364)"
     d="m0 0h12l12 2 5 2v1l-15 1h-11l-8 1-6-4v-2l8 1z"
     fill="#A89892"
     id="path73" />
  <path
     transform="translate(673,409)"
     d="m0 0 7 1 2 4 3 1v4l3 7h-3l-5-1-5-5v-2l-4-1-2-2 1-2-2-1 4-1z"
     fill="#9A8578"
     id="path74" />
  <path
     transform="translate(677,560)"
     d="m0 0 3 1v28l-2-2v5l-2 1-1-9-2-1 1-3h-2v-8l3-9z"
     fill="#847D7E"
     id="path75" />
  <path
     transform="translate(486,483)"
     d="m0 0 23 1 15 4 3 1 1 3-4 6-6 1 4-3 1-5-4-2-18-3h-15l-12 3-6 2-10 3 3-3 10-4z"
     fill="#94796E"
     id="path76" />
  <path
     transform="translate(316,424)"
     d="m0 0 2 1-1 5-3 11-2 1v6h-2l-1 9-2 7h-2l-2 5-2 10-2 5h-2l2-14 4-8h2v-8l3-3 2-11 4-10z"
     fill="#998173"
     id="path77" />
  <path
     transform="translate(577,663)"
     d="m0 0h3l2 2 5 1-1 7 2 9h-5l1-2-2-2 1-3h-6l-5-7z"
     fill="#9B8375"
     id="path78" />
  <path
     transform="translate(370,489)"
     d="m0 0 2 1v11l1 4h-2l-1 3-11 3-17-6v-1l8 1 12 1 4-4 3-12z"
     fill="#A38B79"
     id="path79" />
  <path
     transform="translate(478,487)"
     d="m0 0h6 3 8l-3 2 3 9-13-3-2-5-13 5-2-1 4-3 5-1 1-2z"
     fill="#876559"
     id="path80" />
  <path
     transform="translate(412,598)"
     d="m0 0 9 1h4l1 2 3 1 2-4 3 1 2 1 1 5-3 3-11-2-9-3v-3l-4-1z"
     fill="#937E6E"
     id="path81" />
  <path
     transform="translate(331,477)"
     d="m0 0h8l16 5 8 5-2 1-12-5-10-3h-8l4 9 3 6 1 3 10 4-4 1-8-5-3-3-7-14 1-3z"
     fill="#5D4841"
     id="path82" />
  <path
     transform="translate(330,472)"
     d="m0 0 6 1v1l-12 2v8h2l4 8 6 7 8 4v1l-7-1-9-8-2-6-6-2 2-1-4-6 2-6z"
     fill="#967B70"
     id="path83" />
  <path
     transform="translate(280,559)"
     d="m0 0h1l1 7 2-1h1l4-1-2 4 4-1-1-3 1-2h2l1 6-1 2 3-1v2l2 1-3 3v4l-8 1 5-4-6-3v-2h-4l-2 3z"
     fill="#947A6F"
     id="path84" />
  <path
     transform="translate(670,370)"
     d="m0 0h2l1 4h-2l-1 3-9 2-1 3-10 3-5 3h-2v2h-3v2l-6 1 2-1v-3l7-2v-2l9-3 1-2 5-3h4l1-4 7-1z"
     fill="#A69287"
     id="path85" />
  <path
     transform="translate(477,490)"
     d="m0 0h3l2 4-12 2-10 4-3 3h-2l-1 5 3 2 16 2 1 2h-9l-9-2-6-4 2-6 11-7 12-4z"
     fill="#5D4841"
     id="path86" />
  <path
     transform="translate(431,364)"
     d="m0 0h18l18 4v1l-12 1-5-1h-13l-10-1 2-1v-2z"
     fill="#999499"
     id="path87" />
  <path
     transform="translate(252,315)"
     d="m0 0 6 1v3l5 1 2 3-2 1 1 5 1 4-4 5-4-10-5-11z"
     fill="#86756C"
     id="path88" />
  <path
     transform="translate(501,488)"
     d="m0 0 11 2 4 2-1 3h-3v2l-3 3h-2l-1 3-16 8-5 2h-9v-2h7l10-4h3v-2l8-5 3-5 2-1v-2l-10-2z"
     fill="#3E1F1F"
     id="path89" />
  <path
     transform="translate(676,436)"
     d="m0 0 7 1 3 1 6-2 1 4-4 2v3h-2v2l-3 1v-2h-2l-3-3h-2v-2l-5-1 1-3z"
     fill="#87766F"
     id="path90" />
  <path
     transform="translate(610,584)"
     d="m0 0 5 2 5 1-3 2 1 2h-2l1 3-3 3h-6v-2l-5-1v-3l6-5z"
     fill="#A48C7A"
     id="path91" />
  <path
     transform="translate(486,485)"
     d="m0 0h15l18 3 5 3-2 6-9 3v2l-3-1 5-4 4-3v-2l-9-3-5-1-18-1-1 2-2-1v-2z"
     fill="#7A675A"
     id="path92" />
  <path
     transform="translate(519,571)"
     d="m0 0h14l4 1-2 5h-2v2l-4-1v-2l-2 2h-3l-1 2h-3l-2-4-1-3h2z"
     fill="#7A675A"
     id="path93" />
  <path
     transform="translate(307,426)"
     d="m0 0h1l1 12 2-1-2 14-4 6-3 1-2-1 1-5 5-14z"
     fill="#826F67"
     id="path94" />
  <path
     transform="translate(455,494)"
     d="m0 0 3 1h-2v2l-5 3-4 4-1 6 6 2 4 3h-7-3l-5-2v-8l3-5 8-5z"
     fill="#957A6F"
     id="path95" />
  <path
     transform="translate(512,364)"
     d="m0 0h31l13 5v1l-10-1h-8l-1-3-7 1-18-2z"
     fill="#968F91"
     id="path96" />
  <path
     transform="translate(257,309)"
     d="m0 0 5 1 16 9 2 4-5 1-8-5-9-6-2-1z"
     fill="#B3A29D"
     id="path97" />
  <path
     transform="translate(340,476)"
     d="m0 0 10 1v2l11 2v2l4 2 3 3 1 8-2 6h-2v-12l-4-4-9-4-9-3v-2z"
     fill="#8D695C"
     id="path98" />
  <path
     transform="translate(587,586)"
     d="m0 0 5 1-2 1v2h3l1-3 1 2 3-1 2 4-3 1-2 4-4-1-1-3-9 1v-4l3-3z"
     fill="#A69286"
     id="path99" />
  <path
     transform="translate(301,456)"
     d="m0 0 2 1 3-1-1 6-3 3-4 13-4-1 1-8 5-12z"
     fill="#86746C"
     id="path100" />
  <path
     transform="translate(667,440)"
     d="m0 0 6 3v2h2v2l4-1 2 1v2h-2v7l-2 1-1-7-1 4-3-1-1-3-4-1 1-4-4-1v-3z"
     fill="#9A8275"
     id="path101" />
  <path
     transform="translate(281,616)"
     d="m0 0h3 2l1 6-1 10-2 5h-2l-2 2z"
     fill="#79665D"
     id="path102" />
  <path
     transform="translate(672,456)"
     d="m0 0h2l-2 6 1 2-2 5-2-2-3 1-1 9-2 5-5 1-1 2v-3l4-4 1-11h2v-2l4-3h2v-3h2z"
     fill="#9B8477"
     id="path103" />
  <path
     transform="translate(515,499)"
     d="m0 0 3 1-4 3h-2v2l-4 4-11 5-11 4h-12l-1-2 11-1 15-5 9-5 3-1v-2h2v-2z"
     fill="#957A6F"
     id="path104" />
  <path
     transform="translate(352,538)"
     d="m0 0v3l2 1v11l2 9-4-2-3-7-2-3h2l-1-7h2l1-4z"
     fill="#A48C7A"
     id="path105" />
  <path
     transform="translate(326,413)"
     d="m0 0 1 4 4-1-2 5h-3v5l-5 2-5 8-1-4 2-3 2-6 3-2 1-4 2-1z"
     fill="#A28A79"
     id="path106" />
  <path
     transform="translate(675,675)"
     d="m0 0 4 1 7 6v1h-22l2-3 6-1 4-2z"
     fill="#888285"
     id="path107" />
  <path
     transform="translate(608,410)"
     d="m0 0h4l-1 4h-3l-2 11v4l-1 4h-2l-3-4 1-7 2-4h2l-1-3 4-2z"
     fill="#9B8375"
     id="path108" />
  <path
     transform="translate(280,321)"
     d="m0 0 10 6-3 7-8-5-3-3v-2l4-1z"
     fill="#A29086"
     id="path109" />
  <path
     transform="translate(525,487)"
     d="m0 0 5 1 1 3h2v4h-2v2l-3 2-9 3-6 4-5 2 2-3h2v-2l6-4 9-4 1-7z"
     fill="#A48C7C"
     id="path110" />
  <path
     transform="translate(495,487)"
     d="m0 0h10l7 2-3 1-12-1v8l-3 3-11-4v-1l9 1 2 1-3-9z"
     fill="#5E4942"
     id="path111" />
  <path
     transform="translate(489,481)"
     d="m0 0h13l5 1 11 3 7 1v2h3l1 5-2 3-2-1 2-4v-2l-11-2-7-2-22-2z"
     fill="#9C8475"
     id="path112" />
  <path
     transform="translate(376,364)"
     d="m0 0h12l-4 1v2l-4 2-5 2-6-1-4-3v-2l8 1z"
     fill="#8A8283"
     id="path113" />
  <path
     transform="translate(397,593)"
     d="m0 0 5 2 1 3 5 1 3 4h-5l-3 1-9-3-1-2 7 1-4-4z"
     fill="#8C6D5F"
     id="path114" />
  <path
     transform="translate(320,573)"
     d="m0 0 3 1v3l6 1 1 2 5 2-1 3 1 2-4-1-9-6-3-3z"
     fill="#94796E"
     id="path115" />
  <path
     transform="translate(628,392)"
     d="m0 0 9 1-5 5-6 2-5 5-6 2 3-6 7-4 3-1z"
     fill="#A38C7C"
     id="path116" />
  <path
     transform="translate(489,582)"
     d="m0 0h5l-2 2 1 6 3 2-1 2-5 2-1 2-4-1 4-7h-2l-1-6z"
     fill="#9A8274"
     id="path117" />
  <path
     transform="translate(486,483)"
     d="m0 0h8l4 2-12 1-12 3-6 2-10 3 3-3 10-4z"
     fill="#937E6E"
     id="path118" />
  <path
     transform="translate(310,448)"
     d="m0 0 4 4-1 7-1 2h-2l1 5-2 2-4-1v-3h2l1-7z"
     fill="#A58F81"
     id="path119" />
  <path
     transform="translate(607,651)"
     d="m0 0h10 4l-1 8-4-1-1-1-10-3v-2z"
     fill="#9B8375"
     id="path120" />
  <path
     transform="translate(697,412)"
     d="m0 0h6l2 9-2 2-6-2-2-3 1-4z"
     fill="#85756E"
     id="path121" />
  <path
     transform="translate(576,674)"
     d="m0 0h8l-1 4 2 2-1 1 4 2h-9l-4-2z"
     fill="#937F6E"
     id="path122" />
  <path
     transform="translate(296,342)"
     d="m0 0 6 2v2l5 1 8 7 1 3h-2v-2h-2v2l-4-1-1-4-10-7z"
     fill="#9F8777"
     id="path123" />
  <path
     transform="translate(629,682)"
     d="m0 0h29v1l-7 2h-26l1-2z"
     fill="#969298"
     id="path124" />
  <path
     transform="translate(284,592)"
     d="m0 0 3 2 1 9-2 7-3 1v-16z"
     fill="#776357"
     id="path125" />
  <path
     transform="translate(745,325)"
     d="m0 0h6v7h-12l-1-2 3-3z"
     fill="#9C9498"
     id="path126" />
  <path
     transform="translate(549,562)"
     d="m0 0 5 2 1 1v5l-3 1v7l-3 1-1-3v-8l1-3z"
     fill="#9A8274"
     id="path127" />
  <path
     transform="translate(333,471)"
     d="m0 0 11 1 5 3h6l1 4-12-2-8-2v-2h-3z"
     fill="#9D8575"
     id="path128" />
  <path
     transform="translate(330,567)"
     d="m0 0 5 1v3l6 7 3 1v3l-5-2-7-5v-3h-2z"
     fill="#9B8274"
     id="path129" />
  <path
     transform="translate(281,570)"
     d="m0 0 5 1v2l6 1 1 3-3 2h-3v-2h-2l-2-5v14h-1l-1-7z"
     fill="#868083"
     id="path130" />
  <path
     transform="translate(668,497)"
     d="m0 0 4 2v9l1 3-2 2-3 1-1-12z"
     fill="#A7A0A5"
     id="path131" />
  <path
     transform="translate(705,345)"
     d="m0 0 2 1-2 3-7 2-4 3-9 3-2-3z"
     fill="#8C7A71"
     id="path132" />
  <path
     transform="translate(440,364)"
     d="m0 0h9l18 4v1l-12 1-9-3v-1l-6-1z"
     fill="#8E8687"
     id="path133" />
  <path
     transform="translate(415,364)"
     d="m0 0 2 1v2l-3 2h-9l-9-3v-1z"
     fill="#857F80"
     id="path134" />
  <path
     transform="translate(370,531)"
     d="m0 0h6l4 3 6 2-1 2-8-2-4-2-8 1-2 1v-3z"
     fill="#9B8375"
     id="path135" />
  <path
     transform="translate(281,552)"
     d="m0 0h2l2 2 1 13-2 2-1-3-2 2z"
     fill="#878183"
     id="path136" />
  <path
     transform="translate(670,478)"
     d="m0 0 3 2v2l2 1-1 2-1 19h-1l-1-13-2-1v-8z"
     fill="#807776"
     id="path137" />
  <path
     transform="translate(450,678)"
     d="m0 0h9l10 2v2h-16l-6-2z"
     fill="#8B786C"
     id="path138" />
  <path
     transform="translate(471,593)"
     d="m0 0 3 3v1l3 1-3 2-15 1-6-1v-1l14-1v-3z"
     fill="#9B8375"
     id="path139" />
  <path
     transform="translate(394,677)"
     d="m0 0 5 1 2 3-1 1h-14l-1-2h3l1-2z"
     fill="#5D4841"
     id="path140" />
  <path
     transform="translate(690,436)"
     d="m0 0h3l-1 5-3 1v3l-3 1-3-1-1-5 4-1z"
     fill="#87766F"
     id="path141" />
  <path
     transform="translate(311,339)"
     d="m0 0 6 1 13 8-1 2-5-2-13-7z"
     fill="#9C908E"
     id="path142" />
  <path
     transform="translate(357,591)"
     d="m0 0 3 2-2 3 3 1v1l-10 1 3-1v-2h-8v-2l-2-1 7 1 6-1z"
     fill="#8B6C5E"
     id="path143" />
  <path
     transform="translate(669,369)"
     d="m0 0h5l-2 3v-2h-2v2l-7 2-1 3-8 2 1-4 3-2h3v-2l5-1 3 1z"
     fill="#BEA18C"
     id="path144" />
  <path
     transform="translate(604,503)"
     d="m0 0 4 1v2h2l-1 4-7 1-1-6z"
     fill="#BAA8A2"
     id="path145" />
  <path
     transform="translate(492,658)"
     d="m0 0h3l4 4v3l-1 2h-2l1 3h-5l-2 1 1-3h2v-3h2z"
     fill="#8C6D5F"
     id="path146" />
  <path
     transform="translate(363,488)"
     d="m0 0 3 2v7l-2 6-3 2h-8l-4-2h8l5-2 1-3z"
     fill="#5D4841"
     id="path147" />
  <path
     transform="translate(302,463)"
     d="m0 0 1 3-1 11-2 4-1 3h-2l2-14z"
     fill="#968071"
     id="path148" />
  <path
     transform="translate(326,489)"
     d="m0 0 3 1 6 8 9 5v1l-7-1-9-8z"
     fill="#977D70"
     id="path149" />
  <path
     transform="translate(459,515)"
     d="m0 0h8l7 2 4 2-7 1-9-2z"
     fill="#9A8173"
     id="path150" />
  <path
     transform="translate(472,488)"
     d="m0 0 3 1-1 2-7 2-2 2-7 2-5 3-2-1 2-2h3v-2l15-6z"
     fill="#896B5D"
     id="path151" />
  <path
     transform="translate(284,638)"
     d="m0 0 4 5v5l-4 1-3-7 1-3z"
     fill="#796659"
     id="path152" />
  <path
     transform="translate(297,558)"
     d="m0 0 4 1v3h-4l-1 5 2 1-5 2-1-6 4-2z"
     fill="#8F7A6E"
     id="path153" />
  <path
     transform="translate(654,446)"
     d="m0 0 7 1 4 3-1 3 1 3-3-1v-2h-3v-2h-2v-2z"
     fill="#7A675A"
     id="path154" />
  <path
     transform="translate(598,407)"
     d="m0 0h2l-1 4-6 3h-3l-4 1-2 2-1-3 6-1v-2z"
     fill="#BEA28D"
     id="path155" />
  <path
     transform="translate(303,447)"
     d="m0 0 4 1-1 8-4 2-2-1 1-5z"
     fill="#7A685C"
     id="path156" />
  <path
     transform="translate(650,382)"
     d="m0 0m-1 1v3l-6 2v2h-3v2l-6 1 2-1v-3l7-2v-2z"
     fill="#A7948A"
     id="path157" />
  <path
     transform="translate(725,377)"
     d="m0 0h2l-1 6-4 8-2 1 1-7z"
     fill="#A79C9B"
     id="path158" />
  <path
     transform="translate(688,362)"
     d="m0 0h5l-1 4-5 1-5 2-1 2-5 1 5-5 6-4z"
     fill="#A18978"
     id="path159" />
  <path
     transform="translate(484,490)"
     d="m0 0 7 2 4 5h-3l-9-3z"
     fill="#988372"
     id="path160" />
  <path
     transform="translate(565,678)"
     d="m0 0 3 1-4 6-6 1v-3l2-3h5z"
     fill="#988173"
     id="path161" />
  <path
     transform="translate(483,487)"
     d="m0 0h4 8l-3 2 2 6-4-3-6-2z"
     fill="#89695B"
     id="path162" />
  <path
     transform="translate(675,449)"
     d="m0 0 2 1 1 5-2 3-4-2v3h-3v-6l6 1z"
     fill="#937F6E"
     id="path163" />
  <path
     transform="translate(496,488)"
     d="m0 0 3 1h-2v8l-3 3-11-4v-1l9 1 3 2v-9z"
     fill="#492E2B"
     id="path164" />
  <path
     transform="translate(502,587)"
     d="m0 0h6v2l4 1-2 2h-7l-2-1z"
     fill="#7A675A"
     id="path165" />
  <path
     transform="translate(290,656)"
     d="m0 0h3v3h2v7l-2-1-1-3h-3l-1-4h2z"
     fill="#796659"
     id="path166" />
  <path
     transform="translate(368,496)"
     d="m0 0 2 2-2 7-4 3h-8l-3-2h9l4-4z"
     fill="#947F6F"
     id="path167" />
  <path
     transform="translate(311,476)"
     d="m0 0 5 1v2h2l1-3v5l1 2-6 1 1-4-3-1z"
     fill="#AC9380"
     id="path168" />
  <path
     transform="translate(588,446)"
     d="m0 0 4 2h4l-2 6h-4l-1-5h-2z"
     fill="#A48C7A"
     id="path169" />
  <path
     transform="translate(640,416)"
     d="m0 0 4 1 1 6h-3l-1 4-1-1v-5h-2v-2h2z"
     fill="#836A5C"
     id="path170" />
  <path
     transform="translate(292,387)"
     d="m0 0 5 2-1 7h-4l-1-4z"
     fill="#816A5D"
     id="path171" />
  <path
     transform="translate(640,385)"
     d="m0 0h3v2l-3 2h-4v3l-7 1v-2h2l1-3h6l1-2z"
     fill="#BEA18C"
     id="path172" />
  <path
     transform="translate(709,352)"
     d="m0 0 3 2-2 2h-3v2l-10 3 1-3 5-1v-2z"
     fill="#9D8576"
     id="path173" />
  <path
     transform="translate(287,334)"
     d="m0 0h2l3 3 14 8 1 2-5-1v-2l-7-2-8-6z"
     fill="#A7948A"
     id="path174" />
  <path
     transform="translate(515,499)"
     d="m0 0 3 1-4 3h-2v2l-4 4-8 3 1-3 8-5h2v-2h2v-2z"
     fill="#967D70"
     id="path175" />
  <path
     transform="translate(260,328)"
     d="m0 0 4 1 1 4-4 5-3-6z"
     fill="#7C695F"
     id="path176" />
  <path
     transform="translate(566,405)"
     d="m0 0h6l1 4-3-1v2h-2v2l-3-1v-5z"
     fill="#BAA9A3"
     id="path177" />
  <path
     transform="translate(642,391)"
     d="m0 0h2v2h-2v2l-7 3-3-1 3-3h2v-2z"
     fill="#9C8475"
     id="path178" />
  <path
     transform="translate(722,337)"
     d="m0 0 3 1-3 3h-3v2l-9 1 4-3z"
     fill="#867E7E"
     id="path179" />
  <path
     transform="translate(661,476)"
     d="m0 0v3l-2 3h-2v5l-5 1-1-2h2v-2l2-2 2-1 1-2z"
     fill="#937F6E"
     id="path180" />
  <path
     transform="translate(316,424)"
     d="m0 0 2 1-1 5-3 11-3-2 3-9z"
     fill="#9C8475"
     id="path181" />
  <path
     transform="translate(630,375)"
     d="m0 0h6l-1 5h-6v-2l-2-1z"
     fill="#BAAFAD"
     id="path182" />
  <path
     transform="translate(670,663)"
     d="m0 0 2 3v8l-3-1-3-5z"
     fill="#7A675A"
     id="path183" />
  <path
     transform="translate(364,502)"
     d="m0 0h2l-1 3-3 2-12-1-3-2h14z"
     fill="#7A6659"
     id="path184" />
  <path
     transform="translate(392,558)"
     d="m0 0 4 1-1 4h-6l-3-3z"
     fill="#5D4841"
     id="path185" />
  <path
     transform="translate(331,494)"
     d="m0 0 5 2 5 4 8 3v1l-8-1-8-6z"
     fill="#8A685B"
     id="path186" />
  <path
     transform="translate(340,476)"
     d="m0 0 10 1v2l4 1v2l-8-2-3-1v-2z"
     fill="#8C6B5D"
     id="path187" />
  <path
     transform="translate(544,366)"
     d="m0 0 8 1 4 3-15-1z"
     fill="#A1999C"
     id="path188" />
  <path
     transform="translate(305,681)"
     d="m0 0 4 1-1 3h-10l-1-3 8 1z"
     fill="#907C6C"
     id="path189" />
  <path
     transform="translate(280,559)"
     d="m0 0h1l1 7 2-1 1 6h-3l-2 3z"
     fill="#6D5953"
     id="path190" />
  <path
     transform="translate(281,534)"
     d="m0 0h1l1 15 2 1-1 5-1-3h-2z"
     fill="#735E57"
     id="path191" />
  <path
     transform="translate(417,364)"
     d="m0 0h2l2 5-5 1h-11v-1l9-1z"
     fill="#9D979B"
     id="path192" />
  <path
     transform="translate(316,357)"
     d="m0 0h2l3 5 3 4v2l-4-1-4-7z"
     fill="#9D8576"
     id="path193" />
  <path
     transform="translate(666,680)"
     d="m0 0h6v2l6-1 2 2h-16z"
     fill="#97949A"
     id="path194" />
  <path
     transform="translate(329,486)"
     d="m0 0h2l3 6-1 3-5-5z"
     fill="#8E6559"
     id="path195" />
  <path
     transform="translate(273,324)"
     d="m0 0 6 3 5 8h-3l-3-3-1-5-4-1z"
     fill="#9D8576"
     id="path196" />
  <path
     transform="translate(284,616)"
     d="m0 0h2l1 6v5l-2-3h-2v-7z"
     fill="#7A675A"
     id="path197" />
  <path
     transform="translate(543,582)"
     d="m0 0 3 1-2 4h-3l-1 3-3-2h2l1-4z"
     fill="#968071"
     id="path198" />
  <path
     transform="translate(440,506)"
     d="m0 0 2 4v2l3 2-1 3-6-4z"
     fill="#9B8375"
     id="path199" />
  <path
     transform="translate(424,599)"
     d="m0 0 4 3 1 5-6-1-2-1 1-2h2z"
     fill="#95796F"
     id="path200" />
  <path
     transform="translate(553,569)"
     d="m0 0 2 1-3 1v7l-3 1-1-3 1-6z"
     fill="#937F6E"
     id="path201" />
  <path
     transform="translate(460,495)"
     d="m0 0 3 1-11 7-2-1 4-4z"
     fill="#8B6458"
     id="path202" />
  <path
     transform="translate(656,493)"
     d="m0 0 1 2h-2v2l-4 1-5-1 1-3z"
     fill="#B8A7A2"
     id="path203" />
  <path
     transform="translate(526,490)"
     d="m0 0 2 2-4 6-6 1 4-3 2-5z"
     fill="#947F6F"
     id="path204" />
  <path
     transform="translate(345,474)"
     d="m0 0 10 1 1 4-9-2-2-1z"
     fill="#A58C7A"
     id="path205" />
  <path
     transform="translate(370,422)"
     d="m0 0 5 5h-2l-1 3-3-2-1-5z"
     fill="#BDA393"
     id="path206" />
  <path
     transform="translate(328,406)"
     d="m0 0 3 3v6h-2v2h-2z"
     fill="#B09582"
     id="path207" />
  <path
     transform="translate(492,669)"
     d="m0 0h3l-2 4-3 3h-3l2-4z"
     fill="#82695C"
     id="path208" />
  <path
     transform="translate(682,440)"
     d="m0 0h6v5l-2 1-3-1z"
     fill="#7A675A"
     id="path209" />
  <path
     transform="translate(635,411)"
     d="m0 0 5 2-4 1-1 4h-5l-1-2h3l2-4z"
     fill="#7A675A"
     id="path210" />
  <path
     transform="translate(607,388)"
     d="m0 0 5 1-3 3-1 5h-2z"
     fill="#CFBCAD"
     id="path211" />
  <path
     transform="translate(732,365)"
     d="m0 0h2l-1 5-4 5v-2l-2-1z"
     fill="#9F9799"
     id="path212" />
</svg>
