<svg id="svg" version="1.1" xmlns="http://www.w3.org/2000/svg" xmlns:xlink="http://www.w3.org/1999/xlink" width="400" height="400" viewBox="0, 0, 400,400"><g id="svgg"><path id="path0" d="M252.224 117.413 C 251.668 117.833,251.611 118.001,252.024 118.003 C 252.361 118.004,252.181 118.294,251.588 118.703 C 250.964 119.133,250.599 119.745,250.634 120.300 C 250.667 120.821,250.461 121.200,250.145 121.200 C 249.845 121.200,249.645 121.417,249.700 121.682 C 249.755 121.947,249.543 122.172,249.229 122.182 C 248.521 122.204,247.852 124.381,248.535 124.440 C 248.791 124.462,248.550 124.604,248.000 124.756 C 247.299 124.949,246.962 125.355,246.873 126.116 C 246.804 126.712,246.503 127.200,246.205 127.200 C 245.907 127.200,245.542 127.752,245.394 128.427 C 245.246 129.102,244.873 129.751,244.565 129.869 C 244.257 129.987,244.105 130.246,244.228 130.445 C 244.350 130.643,244.173 130.912,243.833 131.043 C 243.360 131.224,243.311 131.459,243.621 132.040 C 243.845 132.458,243.932 132.822,243.814 132.850 C 242.247 133.216,241.650 133.666,241.893 134.299 C 242.053 134.714,241.977 134.833,241.673 134.645 C 241.360 134.452,241.295 134.582,241.473 135.045 C 241.651 135.511,241.585 135.638,241.268 135.442 C 240.981 135.265,240.800 135.415,240.800 135.832 C 240.800 136.206,240.485 136.751,240.100 137.043 C 239.647 137.387,239.582 137.579,239.916 137.587 C 240.337 137.598,240.337 137.703,239.916 138.158 C 239.632 138.465,239.265 138.634,239.100 138.534 C 238.708 138.297,238.713 138.932,239.107 139.420 C 239.275 139.629,239.350 139.770,239.273 139.733 C 238.728 139.474,237.562 141.335,238.053 141.682 C 238.453 141.966,238.359 142.017,237.700 141.872 C 237.132 141.748,236.800 141.864,236.800 142.188 C 236.800 142.471,236.554 142.906,236.253 143.156 C 235.935 143.420,235.767 144.129,235.851 144.852 C 235.964 145.828,235.885 146.003,235.481 145.667 C 235.100 145.351,234.835 145.453,234.454 146.062 C 234.032 146.739,234.035 146.827,234.470 146.565 C 235.124 146.172,234.168 147.463,233.037 148.503 C 232.616 148.889,232.389 149.323,232.533 149.467 C 232.677 149.611,232.427 149.986,231.977 150.301 C 231.526 150.617,231.226 151.079,231.310 151.329 C 231.393 151.580,231.041 152.237,230.528 152.791 C 230.014 153.345,229.776 153.859,229.997 153.932 C 230.219 154.006,230.400 154.226,230.400 154.421 C 230.400 154.616,230.130 154.671,229.800 154.545 C 229.071 154.265,229.015 154.841,229.700 155.579 C 230.100 156.010,230.100 156.061,229.700 155.835 C 229.425 155.680,229.200 155.754,229.200 156.000 C 229.200 156.246,229.029 156.342,228.820 156.212 C 228.175 155.814,227.620 157.330,228.088 158.210 C 228.430 158.855,228.411 158.910,227.983 158.510 C 227.379 157.944,226.400 158.525,226.400 159.449 C 226.400 159.752,226.220 160.000,226.000 160.000 C 225.780 160.000,225.600 160.246,225.600 160.546 C 225.600 160.846,225.267 161.521,224.860 162.046 C 224.453 162.571,224.198 163.225,224.293 163.500 C 224.388 163.775,224.182 164.109,223.833 164.243 C 223.485 164.376,223.200 164.837,223.200 165.266 C 223.200 165.696,223.033 165.944,222.829 165.818 C 222.625 165.692,222.343 165.951,222.202 166.394 C 222.061 166.837,221.758 167.200,221.528 167.200 C 221.291 167.200,221.185 167.717,221.284 168.390 C 221.433 169.406,221.371 169.509,220.864 169.090 C 220.350 168.666,220.332 168.719,220.736 169.477 C 221.151 170.255,221.113 170.337,220.402 170.200 C 219.600 170.046,219.479 170.409,219.495 172.924 C 219.498 173.344,219.288 173.566,218.994 173.453 C 218.680 173.333,218.396 173.722,218.244 174.479 C 217.819 176.606,217.929 177.199,218.700 176.934 C 219.269 176.738,219.250 176.813,218.600 177.333 C 218.160 177.686,218.019 177.980,218.287 177.987 C 218.556 177.994,218.672 178.268,218.546 178.597 C 218.420 178.925,218.561 179.288,218.858 179.404 C 219.178 179.528,219.427 180.303,219.465 181.295 C 219.501 182.220,219.726 183.042,219.965 183.122 C 220.204 183.201,220.400 183.522,220.400 183.833 C 220.400 184.145,220.595 184.400,220.833 184.400 C 221.072 184.400,221.195 184.614,221.108 184.875 C 221.021 185.136,221.283 185.683,221.690 186.090 C 222.096 186.496,222.305 187.030,222.153 187.276 C 221.972 187.569,222.060 187.610,222.406 187.396 C 222.789 187.160,222.866 187.250,222.685 187.722 C 222.548 188.081,222.635 188.498,222.879 188.649 C 223.138 188.809,223.212 188.742,223.055 188.489 C 222.908 188.251,222.974 187.939,223.203 187.798 C 223.432 187.656,223.594 187.689,223.563 187.870 C 223.374 188.957,223.718 190.010,224.558 190.917 C 225.085 191.485,225.415 192.052,225.291 192.175 C 225.168 192.299,225.257 192.400,225.489 192.400 C 225.721 192.400,225.886 192.715,225.856 193.100 C 225.821 193.531,226.031 193.749,226.400 193.667 C 226.730 193.593,226.863 193.670,226.696 193.837 C 226.529 194.004,226.799 194.603,227.296 195.167 C 228.165 196.154,228.166 196.166,227.328 195.460 C 226.474 194.742,226.460 194.744,226.674 195.563 C 226.795 196.023,227.153 196.400,227.470 196.400 C 227.809 196.400,227.928 196.593,227.758 196.868 C 227.559 197.189,227.693 197.250,228.186 197.061 C 228.805 196.823,228.870 196.950,228.661 197.993 C 228.434 199.130,228.671 199.413,229.708 199.245 C 229.878 199.217,229.935 199.646,229.835 200.197 C 229.735 200.749,229.832 201.200,230.050 201.200 C 230.269 201.200,230.312 201.425,230.147 201.700 C 229.922 202.075,230.007 202.070,230.488 201.681 C 230.884 201.359,231.221 201.311,231.371 201.553 C 231.504 201.768,231.427 202.060,231.199 202.200 C 230.941 202.360,231.086 202.838,231.588 203.475 C 232.028 204.035,232.291 204.653,232.171 204.847 C 232.051 205.041,232.128 205.200,232.343 205.200 C 232.558 205.200,232.830 204.975,232.948 204.700 C 233.066 204.425,233.090 204.711,233.001 205.335 C 232.883 206.172,232.984 206.415,233.387 206.260 C 234.027 206.015,234.425 206.831,234.210 207.947 C 234.127 208.377,234.402 209.040,234.820 209.418 C 235.239 209.797,235.490 210.254,235.379 210.433 C 235.268 210.613,235.557 210.963,236.020 211.211 C 236.485 211.460,236.768 211.907,236.651 212.210 C 236.515 212.567,236.644 212.681,237.020 212.537 C 237.339 212.414,237.600 212.499,237.600 212.724 C 237.600 212.950,237.721 213.449,237.868 213.833 C 238.070 214.359,237.996 214.451,237.568 214.207 C 237.256 214.028,237.405 214.276,237.900 214.757 C 238.395 215.238,238.800 215.894,238.800 216.216 C 238.800 216.537,238.980 216.800,239.200 216.800 C 239.420 216.800,239.600 217.148,239.600 217.573 C 239.600 217.998,239.942 218.454,240.359 218.587 C 240.850 218.743,241.051 219.084,240.928 219.554 C 240.823 219.954,241.013 220.556,241.350 220.893 C 241.686 221.229,241.841 221.626,241.693 221.774 C 241.544 221.922,241.602 222.169,241.820 222.322 C 242.038 222.475,242.434 223.095,242.700 223.700 C 242.965 224.305,243.451 224.800,243.779 224.800 C 244.146 224.800,244.286 225.032,244.143 225.405 C 243.982 225.825,244.095 225.938,244.515 225.777 C 244.847 225.650,245.255 225.766,245.421 226.035 C 245.608 226.336,245.557 226.421,245.289 226.255 C 244.446 225.734,244.338 226.853,245.163 227.568 C 245.623 227.967,246.000 228.700,246.000 229.196 C 246.000 229.927,246.107 230.009,246.564 229.630 C 246.997 229.271,247.198 229.274,247.426 229.642 C 247.615 229.947,247.555 230.019,247.262 229.838 C 247.008 229.681,246.800 229.743,246.800 229.976 C 246.800 230.209,246.999 230.400,247.243 230.400 C 247.486 230.400,247.587 230.657,247.467 230.971 C 247.236 231.572,248.105 232.561,248.510 232.157 C 248.640 232.027,248.651 232.282,248.536 232.723 C 248.326 233.527,249.857 235.514,250.517 235.294 C 250.692 235.236,250.651 235.532,250.426 235.952 C 249.952 236.837,251.347 239.004,252.094 238.542 C 252.336 238.393,252.409 238.463,252.261 238.702 C 251.934 239.231,252.351 240.400,252.866 240.400 C 253.076 240.400,253.119 240.192,252.962 239.938 C 252.781 239.645,252.853 239.585,253.158 239.774 C 253.530 240.004,253.531 240.201,253.163 240.645 C 252.770 241.118,252.820 241.168,253.443 240.934 C 254.127 240.678,254.144 240.720,253.619 241.364 C 253.106 241.994,253.117 242.122,253.719 242.459 C 254.094 242.668,254.403 243.236,254.406 243.720 C 254.411 244.366,254.504 244.456,254.756 244.057 C 254.978 243.707,255.191 243.662,255.357 243.930 C 255.498 244.158,255.421 244.463,255.187 244.608 C 254.589 244.978,255.569 246.098,256.259 245.833 C 256.551 245.721,256.771 245.757,256.748 245.914 C 256.534 247.352,256.869 248.423,257.500 248.318 C 257.996 248.234,258.203 248.469,258.210 249.121 C 258.216 249.628,258.396 250.168,258.610 250.321 C 258.825 250.474,259.000 250.960,259.000 251.400 C 259.000 251.842,259.268 252.202,259.600 252.204 C 259.990 252.207,260.156 252.521,260.075 253.101 C 259.984 253.753,260.111 253.932,260.545 253.766 C 260.905 253.628,261.324 253.884,261.609 254.417 C 261.927 255.012,261.937 255.208,261.640 255.025 C 261.397 254.875,261.200 255.013,261.200 255.334 C 261.200 255.653,261.482 256.023,261.828 256.155 C 262.245 256.316,262.370 256.665,262.200 257.200 C 262.030 257.735,262.155 258.084,262.572 258.245 C 262.918 258.377,263.200 258.736,263.200 259.043 C 263.200 259.349,263.391 259.600,263.624 259.600 C 263.857 259.600,263.945 259.765,263.820 259.968 C 263.695 260.170,263.856 260.599,264.177 260.920 C 264.499 261.242,264.650 261.616,264.514 261.752 C 264.378 261.889,264.487 262.000,264.757 262.000 C 265.027 262.000,265.124 262.199,264.974 262.443 C 264.787 262.744,265.004 262.800,265.650 262.617 C 266.288 262.436,266.425 262.469,266.066 262.719 C 265.410 263.174,265.471 263.696,266.228 264.120 C 266.543 264.296,266.800 264.796,266.800 265.232 C 266.800 265.668,267.050 266.121,267.355 266.238 C 267.660 266.355,268.008 266.935,268.128 267.526 C 268.247 268.117,268.707 268.986,269.148 269.457 C 269.590 269.929,269.843 270.424,269.709 270.557 C 269.576 270.691,269.812 270.803,270.233 270.806 C 270.875 270.811,270.902 270.876,270.400 271.200 C 270.000 271.458,269.967 271.590,270.300 271.594 C 270.575 271.597,270.755 271.809,270.700 272.065 C 270.645 272.320,271.048 272.643,271.596 272.782 C 272.242 272.946,272.424 273.138,272.113 273.330 C 271.850 273.493,271.736 273.889,271.859 274.211 C 271.983 274.532,272.245 274.696,272.442 274.574 C 272.639 274.452,272.800 274.633,272.800 274.976 C 272.800 275.319,273.059 275.600,273.376 275.600 C 273.693 275.600,274.063 275.778,274.197 275.995 C 274.343 276.231,274.162 276.284,273.751 276.126 C 273.213 275.919,273.120 276.016,273.331 276.563 C 273.479 276.949,273.600 277.351,273.600 277.456 C 273.600 277.561,273.747 277.556,273.927 277.445 C 274.107 277.334,274.480 277.866,274.755 278.628 C 275.055 279.456,275.433 279.903,275.696 279.741 C 275.979 279.566,276.045 279.706,275.881 280.134 C 275.740 280.500,275.810 280.800,276.036 280.800 C 276.262 280.800,276.336 280.980,276.200 281.200 C 276.064 281.420,276.154 281.600,276.400 281.600 C 276.646 281.600,276.736 281.780,276.600 282.000 C 276.464 282.220,276.543 282.400,276.776 282.400 C 277.009 282.400,277.200 282.681,277.200 283.024 C 277.200 283.398,277.387 283.532,277.668 283.358 C 277.983 283.164,278.052 283.287,277.881 283.734 C 277.740 284.100,277.760 284.400,277.925 284.400 C 278.090 284.400,278.429 284.940,278.678 285.601 C 278.929 286.266,279.369 286.741,279.666 286.666 C 279.959 286.592,280.065 286.607,279.900 286.699 C 279.345 287.009,279.594 287.600,280.280 287.600 C 280.803 287.600,280.851 287.709,280.488 288.072 C 280.070 288.490,281.134 290.474,282.379 291.600 C 282.500 291.710,282.658 292.070,282.730 292.400 C 282.801 292.730,283.016 293.057,283.208 293.126 C 283.399 293.195,283.469 293.476,283.363 293.751 C 283.258 294.026,283.534 294.578,283.976 294.979 C 284.419 295.379,284.685 295.863,284.567 296.053 C 284.449 296.244,284.558 296.400,284.810 296.400 C 285.061 296.400,285.195 296.616,285.106 296.881 C 284.957 297.328,285.440 298.091,286.729 299.445 C 287.125 299.862,287.135 300.000,286.767 300.000 C 286.484 300.000,286.599 300.296,287.039 300.700 C 287.457 301.085,287.858 301.670,287.930 302.000 C 288.001 302.330,288.226 302.660,288.430 302.733 C 288.633 302.807,288.800 303.132,288.800 303.457 C 288.800 303.794,288.994 303.927,289.252 303.768 C 289.528 303.598,289.628 303.705,289.509 304.044 C 289.402 304.350,289.693 305.140,290.156 305.800 C 290.620 306.460,291.007 307.180,291.018 307.400 C 291.028 307.620,291.247 307.757,291.504 307.705 C 291.768 307.651,291.872 307.869,291.743 308.205 C 291.617 308.532,291.714 308.800,291.957 308.800 C 292.201 308.800,292.400 309.166,292.400 309.613 C 292.400 310.059,292.659 310.524,292.975 310.646 C 293.291 310.767,293.452 311.121,293.332 311.433 C 293.212 311.745,293.324 312.000,293.581 312.000 C 293.837 312.000,293.948 312.161,293.826 312.358 C 293.704 312.555,293.874 312.819,294.202 312.946 C 294.531 313.072,294.800 313.451,294.800 313.787 C 294.800 314.124,295.092 314.400,295.449 314.400 C 296.004 314.400,296.021 314.501,295.562 315.100 C 295.267 315.485,295.185 315.666,295.378 315.502 C 295.572 315.338,296.057 315.935,296.458 316.830 C 296.923 317.869,297.355 318.351,297.655 318.166 C 297.949 317.984,298.017 318.050,297.836 318.342 C 297.468 318.937,299.199 322.448,299.706 322.134 C 299.933 321.994,299.969 322.266,299.797 322.810 C 299.561 323.554,299.630 323.674,300.175 323.465 C 300.541 323.324,300.744 323.367,300.625 323.559 C 300.506 323.752,300.790 324.009,301.256 324.131 C 301.787 324.269,302.021 324.568,301.883 324.927 C 301.762 325.244,301.873 325.715,302.131 325.975 C 302.491 326.337,302.414 326.378,301.800 326.149 C 301.073 325.877,301.053 325.916,301.582 326.565 C 301.903 326.959,302.207 327.564,302.257 327.910 C 302.308 328.257,302.586 328.683,302.875 328.859 C 304.500 329.845,304.616 329.990,304.061 330.348 C 303.385 330.784,305.066 332.525,305.761 332.109 C 306.002 331.965,305.973 332.127,305.695 332.470 C 305.280 332.983,305.315 333.192,305.895 333.647 C 306.550 334.161,306.557 334.143,306.000 333.400 C 305.452 332.670,305.457 332.645,306.059 333.115 C 306.467 333.434,306.633 333.952,306.496 334.477 C 306.331 335.107,306.409 335.242,306.799 335.001 C 307.155 334.781,307.228 334.832,307.025 335.159 C 306.849 335.444,307.096 335.963,307.624 336.421 C 308.118 336.850,308.360 337.203,308.161 337.206 C 307.963 337.209,308.070 337.387,308.400 337.600 C 308.779 337.845,308.821 337.990,308.513 337.994 C 308.244 337.997,308.128 338.269,308.254 338.598 C 308.381 338.926,308.645 339.096,308.842 338.974 C 309.039 338.852,309.214 338.898,309.231 339.076 C 309.372 340.572,310.687 342.688,311.800 343.212 C 312.020 343.315,312.149 343.554,312.086 343.741 C 311.889 344.334,312.442 345.621,312.800 345.400 C 312.988 345.284,313.265 345.575,313.415 346.047 C 313.629 346.721,313.763 346.787,314.038 346.353 C 314.230 346.049,314.391 345.989,314.394 346.220 C 314.397 346.451,314.206 346.834,313.969 347.071 C 313.661 347.379,313.918 347.938,314.869 349.029 C 315.601 349.869,315.962 350.413,315.670 350.237 C 315.235 349.973,315.232 350.062,315.651 350.732 C 315.931 351.181,316.332 351.442,316.542 351.312 C 316.752 351.183,316.803 351.272,316.655 351.511 C 316.508 351.749,316.573 352.060,316.800 352.200 C 317.027 352.340,317.109 352.623,316.983 352.828 C 316.856 353.032,317.033 353.200,317.376 353.200 C 317.719 353.200,318.000 353.481,318.000 353.824 C 318.000 354.167,318.168 354.344,318.372 354.217 C 318.577 354.091,318.861 354.174,319.002 354.403 C 319.144 354.632,319.044 354.770,318.780 354.710 C 318.516 354.649,318.220 354.817,318.123 355.082 C 318.010 355.388,318.249 355.506,318.776 355.405 C 319.469 355.271,319.578 355.408,319.430 356.222 C 319.300 356.941,319.431 357.202,319.926 357.206 C 320.508 357.211,320.518 357.265,320.000 357.600 C 319.251 358.084,314.803 358.029,353.400 358.014 C 394.158 357.999,391.983 358.022,391.000 357.600 C 390.346 357.319,390.456 357.252,391.600 357.234 C 392.645 357.218,392.848 357.311,392.400 357.600 C 391.903 357.921,391.938 357.988,392.600 357.988 C 393.859 357.988,394.625 357.358,394.128 356.730 C 393.897 356.439,393.604 355.137,393.477 353.837 C 393.349 352.538,393.079 351.368,392.876 351.237 C 392.674 351.107,392.374 350.550,392.211 350.000 C 391.559 347.807,390.182 345.217,389.608 345.106 C 389.275 345.042,388.984 344.722,388.962 344.395 C 388.838 342.552,388.757 342.400,387.900 342.394 C 387.225 342.389,387.139 342.299,387.557 342.035 C 388.192 341.633,386.753 339.205,385.873 339.194 C 385.560 339.190,385.583 339.072,385.941 338.845 C 386.369 338.574,386.307 338.380,385.643 337.915 C 385.182 337.592,384.924 337.209,385.069 337.064 C 385.214 336.919,385.129 336.800,384.879 336.800 C 384.629 336.800,384.529 336.530,384.655 336.200 C 384.801 335.820,384.650 335.600,384.243 335.600 C 383.845 335.600,383.598 335.257,383.594 334.700 C 383.589 334.054,383.492 333.951,383.249 334.334 C 382.992 334.740,382.859 334.668,382.693 334.033 C 382.573 333.574,382.638 333.300,382.837 333.423 C 383.037 333.546,383.200 333.457,383.200 333.224 C 383.200 332.991,382.930 332.800,382.600 332.800 C 382.229 332.800,382.000 332.424,382.000 331.814 C 382.000 331.233,381.667 330.650,381.189 330.394 C 380.743 330.155,380.483 329.789,380.612 329.580 C 380.742 329.371,380.477 329.200,380.024 329.200 C 379.571 329.200,379.200 329.026,379.200 328.813 C 379.200 328.599,379.495 328.538,379.855 328.676 C 380.861 329.062,380.312 327.888,379.233 327.345 C 378.599 327.027,378.489 326.827,378.864 326.677 C 379.237 326.528,379.194 326.454,378.724 326.432 C 378.352 326.414,377.919 326.192,377.762 325.938 C 377.591 325.663,377.651 325.585,377.911 325.745 C 378.149 325.892,378.458 325.830,378.596 325.607 C 378.735 325.381,378.480 325.200,378.024 325.200 C 377.571 325.200,377.200 325.009,377.200 324.776 C 377.200 324.543,377.395 324.473,377.633 324.620 C 377.871 324.768,377.782 324.340,377.436 323.669 C 377.089 322.999,376.621 322.337,376.396 322.198 C 376.171 322.059,376.083 321.789,376.200 321.600 C 376.317 321.410,376.005 320.969,375.507 320.620 C 375.008 320.270,374.645 319.898,374.700 319.792 C 375.007 319.203,374.718 318.400,374.200 318.400 C 373.870 318.400,373.621 318.265,373.647 318.100 C 373.781 317.255,373.551 316.783,373.132 317.042 C 372.817 317.236,372.748 317.113,372.919 316.666 C 373.060 316.300,373.001 316.000,372.787 316.000 C 372.574 316.000,372.400 315.719,372.400 315.376 C 372.400 315.033,372.232 314.856,372.028 314.983 C 371.823 315.109,371.525 315.002,371.366 314.745 C 371.185 314.452,371.250 314.384,371.538 314.562 C 371.792 314.719,372.000 314.669,372.000 314.452 C 372.000 313.853,370.820 312.800,370.148 312.800 C 369.821 312.800,369.666 312.617,369.804 312.393 C 369.942 312.170,370.268 312.114,370.528 312.270 C 370.858 312.468,370.851 312.369,370.503 311.940 C 370.230 311.603,370.091 311.243,370.193 311.141 C 370.295 311.038,369.854 310.380,369.212 309.677 C 368.570 308.975,368.245 308.400,368.489 308.400 C 369.072 308.400,368.473 307.805,367.867 307.782 C 367.610 307.772,367.449 307.536,367.508 307.257 C 367.667 306.514,366.319 304.403,365.865 304.684 C 365.651 304.816,365.601 304.722,365.753 304.477 C 366.039 304.013,364.535 301.319,363.051 299.635 C 362.583 299.105,362.443 298.812,362.740 298.984 C 363.460 299.401,362.710 297.956,361.826 297.222 C 361.487 296.940,361.306 296.552,361.425 296.359 C 361.544 296.167,361.317 296.131,360.921 296.279 C 360.265 296.526,360.254 296.482,360.800 295.798 C 361.130 295.385,361.194 295.170,360.943 295.320 C 360.665 295.487,360.387 295.202,360.235 294.597 C 360.097 294.049,359.708 293.600,359.369 293.600 C 359.030 293.600,358.856 293.432,358.983 293.228 C 359.109 293.023,359.038 292.747,358.824 292.615 C 358.610 292.483,358.536 292.112,358.659 291.791 C 358.784 291.465,358.601 291.098,358.244 290.961 C 357.892 290.827,357.692 290.575,357.798 290.403 C 357.904 290.231,357.725 289.870,357.400 289.600 C 357.075 289.330,356.907 288.950,357.028 288.755 C 357.149 288.560,357.046 288.400,356.800 288.400 C 356.554 288.400,356.467 288.175,356.606 287.900 C 356.745 287.625,356.553 287.760,356.180 288.200 C 355.506 288.993,355.502 288.992,355.713 288.099 C 355.830 287.604,355.775 287.292,355.590 287.406 C 355.025 287.755,354.702 286.800,355.188 286.215 C 355.537 285.794,355.505 285.586,355.051 285.332 C 354.473 285.009,354.400 284.858,354.400 283.976 C 354.400 283.743,354.220 283.664,354.000 283.800 C 353.780 283.936,353.600 283.846,353.600 283.600 C 353.600 283.354,353.456 283.242,353.280 283.351 C 353.104 283.459,352.748 283.208,352.488 282.793 C 352.190 282.314,352.160 281.948,352.408 281.795 C 353.082 281.378,352.839 280.801,351.789 280.322 C 351.055 279.988,350.918 279.772,351.289 279.537 C 351.644 279.311,351.542 279.210,350.955 279.206 C 350.262 279.201,350.147 279.013,350.310 278.157 C 350.518 277.073,349.645 276.079,349.166 276.855 C 349.011 277.105,348.820 277.029,348.679 276.661 C 348.513 276.228,348.661 276.096,349.200 276.200 C 349.722 276.300,349.886 276.169,349.734 275.773 C 349.613 275.458,349.341 275.200,349.129 275.200 C 348.417 275.200,347.547 274.086,348.104 273.887 C 348.439 273.767,348.276 273.357,347.600 272.623 C 347.050 272.025,346.659 271.420,346.730 271.278 C 346.802 271.136,346.622 270.957,346.330 270.880 C 345.979 270.787,346.003 270.882,346.400 271.163 C 346.730 271.397,346.805 271.591,346.567 271.594 C 345.831 271.604,345.585 271.100,346.052 270.537 C 346.297 270.242,346.386 269.978,346.249 269.950 C 346.112 269.923,345.820 269.855,345.600 269.800 C 345.380 269.745,345.065 269.675,344.900 269.644 C 344.735 269.613,344.869 269.418,345.198 269.210 C 345.711 268.885,345.683 268.749,345.002 268.251 C 344.566 267.932,344.072 267.756,343.904 267.859 C 343.737 267.963,343.600 267.872,343.600 267.657 C 343.600 267.442,343.825 267.184,344.100 267.084 C 344.443 266.958,344.314 266.626,343.691 266.026 C 343.191 265.546,342.875 265.002,342.989 264.818 C 343.261 264.378,342.048 263.923,341.502 264.261 C 341.243 264.421,341.195 264.332,341.379 264.035 C 341.545 263.766,341.924 263.639,342.220 263.752 C 342.566 263.885,342.680 263.753,342.538 263.382 C 342.416 263.064,342.155 262.904,341.958 263.026 C 341.761 263.148,341.401 263.124,341.157 262.974 C 340.842 262.779,340.857 262.612,341.209 262.395 C 341.855 261.995,341.366 261.243,340.161 260.785 C 339.199 260.419,338.827 259.600,339.624 259.600 C 339.857 259.600,339.936 259.780,339.800 260.000 C 339.664 260.220,339.743 260.400,339.976 260.400 C 340.588 260.400,340.497 259.754,339.786 259.043 C 339.448 258.705,339.133 258.287,339.086 258.114 C 339.039 257.941,338.843 257.852,338.651 257.916 C 338.459 257.980,338.405 257.765,338.531 257.437 C 338.678 257.053,338.572 256.913,338.232 257.043 C 337.931 257.159,337.613 256.893,337.490 256.422 C 337.371 255.969,337.438 255.700,337.637 255.823 C 337.837 255.946,338.000 255.857,338.000 255.624 C 338.000 255.391,337.832 255.200,337.627 255.200 C 337.422 255.200,337.126 254.796,336.969 254.302 C 336.679 253.388,335.592 252.358,335.184 252.610 C 335.061 252.686,334.748 252.408,334.488 251.993 C 334.138 251.432,334.134 251.165,334.470 250.957 C 334.738 250.791,334.814 250.854,334.655 251.111 C 334.508 251.349,334.557 251.650,334.766 251.779 C 334.974 251.908,335.254 251.837,335.387 251.621 C 335.675 251.154,334.112 249.484,333.652 249.768 C 333.477 249.876,333.333 249.711,333.333 249.400 C 333.333 249.089,333.500 248.938,333.704 249.065 C 333.909 249.191,333.634 248.508,333.094 247.547 C 332.469 246.434,331.877 245.842,331.463 245.916 C 331.021 245.995,330.888 245.835,331.049 245.416 C 331.183 245.067,331.072 244.800,330.794 244.800 C 330.408 244.800,330.409 244.671,330.800 244.200 C 331.218 243.696,331.146 243.596,330.349 243.572 C 329.481 243.546,329.467 243.517,330.191 243.235 C 330.969 242.931,330.968 242.918,330.144 242.477 C 329.683 242.230,329.163 242.157,328.988 242.314 C 328.814 242.471,328.803 242.372,328.964 242.093 C 329.124 241.815,329.421 241.689,329.623 241.814 C 329.825 241.939,329.878 241.748,329.740 241.389 C 329.580 240.970,329.202 240.811,328.687 240.945 C 328.085 241.103,327.999 241.041,328.342 240.698 C 328.941 240.099,328.933 239.470,328.332 239.842 C 328.019 240.035,327.947 239.915,328.115 239.477 C 328.418 238.689,327.326 237.479,326.668 237.873 C 326.311 238.087,326.311 238.016,326.667 237.576 C 327.164 236.960,326.396 235.337,325.860 235.873 C 325.717 236.016,325.600 235.743,325.600 235.267 C 325.600 234.790,325.240 234.040,324.800 233.600 C 324.360 233.160,324.000 232.524,324.000 232.187 C 324.000 231.851,323.715 231.465,323.366 231.332 C 322.875 231.143,322.848 231.017,323.246 230.772 C 323.613 230.545,323.452 230.315,322.679 229.963 C 321.586 229.465,321.226 228.800,322.049 228.800 C 322.359 228.800,322.344 228.615,322.000 228.200 C 321.726 227.870,321.254 227.600,320.951 227.600 C 320.648 227.600,320.400 227.319,320.400 226.976 C 320.400 226.633,320.580 226.464,320.800 226.600 C 321.673 227.140,321.121 226.324,319.717 224.999 C 318.901 224.230,318.451 223.600,318.717 223.600 C 318.982 223.600,319.200 223.810,319.200 224.067 C 319.200 224.323,319.308 224.426,319.439 224.294 C 319.776 223.957,318.305 222.028,317.700 222.013 C 317.205 222.000,317.037 221.501,317.179 220.463 C 317.267 219.815,315.971 218.793,315.404 219.065 C 315.182 219.172,315.349 218.976,315.776 218.630 C 316.204 218.283,316.339 218.000,316.076 218.000 C 315.814 218.000,315.600 217.724,315.600 217.387 C 315.600 217.051,315.330 216.671,315.000 216.545 C 314.670 216.418,314.400 216.129,314.400 215.901 C 314.400 215.674,314.085 215.249,313.700 214.957 C 313.294 214.648,313.205 214.420,313.487 214.413 C 313.766 214.405,313.871 214.129,313.732 213.766 C 313.536 213.256,313.423 213.237,313.150 213.666 C 312.908 214.049,312.811 213.946,312.806 213.300 C 312.803 212.805,312.626 212.400,312.413 212.400 C 312.199 212.400,312.125 212.141,312.246 211.824 C 312.370 211.502,312.117 211.030,311.673 210.753 C 311.194 210.454,310.973 210.008,311.115 209.629 C 311.313 209.098,311.250 209.081,310.711 209.519 C 309.979 210.114,309.486 209.632,309.990 208.816 C 310.199 208.479,310.111 208.054,309.760 207.703 C 309.448 207.391,309.287 206.982,309.403 206.795 C 309.519 206.608,309.295 206.217,308.907 205.927 C 308.518 205.637,308.145 205.040,308.077 204.600 C 308.010 204.160,307.641 203.530,307.257 203.200 C 306.873 202.870,306.478 202.420,306.379 202.200 C 306.281 201.980,306.035 201.855,305.832 201.923 C 305.630 201.990,305.697 201.765,305.981 201.423 C 306.414 200.901,306.389 200.800,305.825 200.800 C 305.455 200.800,305.255 200.635,305.380 200.432 C 305.505 200.230,305.344 199.801,305.023 199.480 C 304.701 199.158,304.550 198.784,304.686 198.648 C 304.822 198.511,304.723 198.400,304.467 198.400 C 304.210 198.400,303.997 198.085,303.994 197.700 C 303.989 197.095,303.929 197.082,303.559 197.600 C 303.215 198.082,303.169 198.023,303.328 197.300 C 303.535 196.355,303.012 196.040,302.665 196.900 C 302.544 197.199,302.450 197.118,302.432 196.700 C 302.414 196.315,302.571 196.000,302.781 196.000 C 302.990 196.000,302.716 195.519,302.170 194.930 C 301.420 194.120,301.303 193.782,301.689 193.536 C 302.038 193.315,301.914 193.210,301.300 193.206 C 300.805 193.203,300.400 193.009,300.400 192.776 C 300.400 192.543,300.598 192.475,300.840 192.625 C 301.149 192.816,301.145 192.644,300.826 192.048 C 300.576 191.582,299.973 191.187,299.486 191.172 C 298.668 191.146,298.660 191.120,299.371 190.842 C 300.092 190.559,300.096 190.522,299.429 190.267 C 299.020 190.110,298.811 189.748,298.938 189.417 C 299.082 189.043,298.966 188.915,298.609 189.052 C 298.215 189.203,298.120 189.027,298.276 188.432 C 298.409 187.924,298.303 187.600,298.004 187.600 C 297.735 187.600,297.595 187.375,297.695 187.100 C 297.911 186.500,295.785 184.371,295.339 184.741 C 295.167 184.883,295.254 184.701,295.532 184.336 C 295.960 183.774,295.853 183.460,294.840 182.307 C 294.181 181.556,293.548 180.429,293.435 179.803 C 293.321 179.177,293.087 178.560,292.914 178.432 C 292.741 178.305,292.172 177.349,291.649 176.308 C 291.125 175.268,290.559 174.502,290.391 174.606 C 290.222 174.710,289.977 174.517,289.846 174.177 C 289.693 173.777,289.771 173.658,290.066 173.841 C 290.357 174.021,290.414 173.946,290.221 173.635 C 290.055 173.366,289.695 173.231,289.422 173.336 C 289.078 173.468,288.985 173.212,289.120 172.504 C 289.255 171.802,289.172 171.570,288.858 171.764 C 288.606 171.920,288.377 171.857,288.350 171.624 C 288.322 171.391,288.278 171.013,288.250 170.785 C 288.185 170.246,287.129 169.597,286.724 169.847 C 286.551 169.954,286.523 169.744,286.663 169.380 C 286.807 169.006,286.675 168.566,286.358 168.366 C 286.020 168.152,285.982 168.010,286.262 168.006 C 286.610 168.002,286.612 167.761,286.269 167.034 C 286.018 166.503,285.694 166.142,285.548 166.232 C 285.318 166.374,284.844 165.622,284.585 164.700 C 284.538 164.535,284.456 164.265,284.403 164.100 C 284.349 163.935,284.328 163.660,284.356 163.489 C 284.384 163.318,284.136 163.073,283.804 162.946 C 283.472 162.819,283.200 162.374,283.200 161.957 C 283.200 161.258,282.750 161.001,281.832 161.175 C 281.630 161.214,281.680 160.986,281.943 160.669 C 282.336 160.196,282.222 160.040,281.311 159.800 C 280.290 159.532,280.265 159.482,281.000 159.177 C 281.782 158.854,281.780 158.841,280.928 158.584 C 280.396 158.424,280.139 158.102,280.270 157.761 C 280.389 157.452,280.297 157.200,280.066 157.200 C 279.835 157.200,279.708 156.877,279.784 156.481 C 279.947 155.635,277.397 151.957,276.747 152.101 C 276.501 152.155,276.219 151.930,276.120 151.600 C 276.013 151.244,276.074 151.163,276.270 151.400 C 276.944 152.217,277.664 152.067,277.203 151.206 C 276.966 150.763,276.588 150.400,276.362 150.400 C 276.137 150.400,276.064 150.220,276.200 150.000 C 276.336 149.780,276.177 149.600,275.847 149.600 C 275.517 149.600,275.137 149.422,275.003 149.205 C 274.860 148.973,275.057 148.905,275.479 149.042 C 275.997 149.209,275.931 149.054,275.242 148.492 C 274.716 148.062,274.404 147.518,274.549 147.283 C 274.694 147.048,274.630 146.742,274.407 146.604 C 274.183 146.466,274.000 146.543,274.000 146.776 C 274.000 147.009,273.826 147.200,273.613 147.200 C 273.399 147.200,273.340 146.900,273.481 146.534 C 273.652 146.087,273.583 145.964,273.268 146.158 C 273.011 146.317,272.800 146.267,272.800 146.047 C 272.800 145.827,272.973 145.540,273.185 145.409 C 273.683 145.102,272.847 143.207,272.263 143.319 C 272.029 143.363,271.829 143.040,271.819 142.600 C 271.805 142.032,271.568 141.834,271.000 141.917 C 270.440 141.998,270.354 141.929,270.712 141.686 C 271.112 141.414,271.046 141.112,270.412 140.306 C 269.965 139.738,269.600 138.987,269.600 138.637 C 269.600 138.287,269.409 138.000,269.176 138.000 C 268.943 138.000,268.881 138.208,269.038 138.462 C 269.216 138.750,269.148 138.815,268.855 138.634 C 268.598 138.475,268.491 138.177,268.617 137.972 C 268.744 137.768,268.635 137.600,268.375 137.600 C 268.041 137.600,268.064 137.401,268.451 136.923 C 268.824 136.463,268.840 136.343,268.500 136.547 C 268.165 136.748,268.000 136.576,268.000 136.024 C 268.000 135.571,267.820 135.200,267.600 135.200 C 267.380 135.200,267.245 135.065,267.300 134.900 C 267.355 134.735,267.220 134.600,267.000 134.600 C 266.780 134.600,266.660 134.780,266.733 135.000 C 266.807 135.220,266.717 135.250,266.533 135.067 C 266.350 134.883,266.197 134.613,266.194 134.467 C 266.191 134.320,266.028 133.947,265.832 133.638 C 265.588 133.252,265.621 133.166,265.938 133.362 C 266.505 133.712,266.512 133.547,265.991 132.177 C 265.598 131.144,263.682 129.314,263.167 129.480 C 263.030 129.524,263.008 129.093,263.117 128.521 C 263.273 127.709,263.194 127.555,262.758 127.817 C 262.327 128.077,262.336 127.983,262.800 127.402 C 263.337 126.729,263.334 126.675,262.767 126.887 C 262.383 127.030,262.133 126.909,262.133 126.579 C 262.133 126.280,262.314 126.147,262.535 126.283 C 262.756 126.420,262.591 126.071,262.168 125.507 C 261.746 124.944,261.234 124.583,261.032 124.707 C 260.830 124.830,260.762 124.676,260.882 124.364 C 261.156 123.651,260.375 122.887,259.591 123.100 C 259.090 123.236,259.086 123.201,259.566 122.866 C 260.030 122.542,259.922 122.256,258.966 121.279 C 257.125 119.397,256.447 118.486,256.700 118.234 C 256.828 118.105,256.710 118.000,256.438 118.000 C 256.166 118.000,255.673 117.730,255.343 117.400 C 254.587 116.644,253.232 116.650,252.224 117.413 M278.400 154.400 C 278.635 154.840,278.760 155.200,278.676 155.200 C 278.592 155.200,278.198 154.840,277.800 154.400 C 277.402 153.960,277.278 153.600,277.524 153.600 C 277.770 153.600,278.165 153.960,278.400 154.400 M332.400 247.049 C 332.400 247.580,332.291 247.608,331.800 247.200 C 331.470 246.926,331.200 246.634,331.200 246.551 C 331.200 246.468,331.470 246.400,331.800 246.400 C 332.130 246.400,332.400 246.692,332.400 247.049 M323.200 357.600 C 323.200 357.820,322.615 357.979,321.900 357.953 L 320.600 357.905 321.800 357.600 C 322.460 357.432,323.045 357.273,323.100 357.247 C 323.155 357.221,323.200 357.380,323.200 357.600 M369.270 357.500 C 360.839 357.560,347.159 357.560,338.870 357.500 C 330.582 357.439,337.480 357.390,354.200 357.390 C 370.920 357.390,377.702 357.440,369.270 357.500 " stroke="none" fill="#ec5c2c" fill-rule="evenodd"></path><path id="path1" d="M36.558 296.306 C 36.315 296.468,35.896 297.275,35.627 298.100 C 35.358 298.925,34.994 299.600,34.818 299.600 C 34.641 299.600,34.260 300.185,33.971 300.900 C 33.682 301.615,33.330 302.290,33.188 302.400 C 33.047 302.510,32.415 303.500,31.785 304.600 C 31.154 305.700,30.525 306.690,30.387 306.800 C 30.249 306.910,29.881 307.585,29.570 308.300 C 29.259 309.015,28.869 309.600,28.702 309.600 C 28.536 309.600,28.400 309.876,28.400 310.213 C 28.400 310.549,28.150 310.921,27.845 311.038 C 27.539 311.155,27.069 312.038,26.800 313.000 C 26.531 313.962,26.061 314.845,25.755 314.962 C 25.450 315.079,25.200 315.451,25.200 315.787 C 25.200 316.124,25.054 316.400,24.875 316.400 C 24.696 316.400,24.302 317.030,24.000 317.800 C 23.698 318.570,23.326 319.200,23.174 319.200 C 23.022 319.200,22.658 319.785,22.365 320.500 C 22.073 321.215,21.601 322.038,21.317 322.329 C 21.033 322.619,20.800 323.095,20.800 323.386 C 20.800 323.677,20.547 324.012,20.238 324.130 C 19.928 324.249,19.554 324.898,19.406 325.573 C 19.258 326.248,19.004 326.800,18.843 326.800 C 18.681 326.800,18.302 327.430,18.000 328.200 C 17.698 328.970,17.304 329.600,17.125 329.600 C 16.946 329.600,16.800 329.857,16.800 330.171 C 16.800 330.486,16.557 330.986,16.260 331.282 C 15.964 331.579,15.487 332.537,15.202 333.411 C 14.917 334.285,14.554 335.090,14.396 335.200 C 14.071 335.425,12.000 339.719,12.000 340.167 C 12.000 340.327,11.741 340.716,11.424 341.033 C 11.107 341.350,10.726 342.417,10.578 343.405 C 10.430 344.392,10.161 345.200,9.979 345.200 C 9.798 345.200,9.528 346.010,9.379 347.000 C 9.231 347.990,8.950 348.800,8.755 348.800 C 8.560 348.800,8.400 350.963,8.400 353.607 L 8.400 358.414 28.000 358.392 C 44.931 358.374,47.600 358.291,47.600 357.786 C 47.600 357.273,61.802 357.200,161.741 357.200 C 279.933 357.200,280.800 357.191,280.800 355.949 C 280.800 354.846,279.875 351.600,279.560 351.600 C 279.410 351.600,279.174 351.150,279.036 350.600 C 278.898 350.050,278.632 349.600,278.444 349.600 C 278.257 349.600,277.877 348.790,277.600 347.800 C 277.323 346.810,276.947 346.000,276.764 346.000 C 276.581 346.000,276.216 345.280,275.953 344.400 C 275.689 343.520,275.341 342.800,275.180 342.800 C 275.019 342.800,274.774 342.350,274.636 341.800 C 274.498 341.250,274.232 340.800,274.044 340.800 C 273.857 340.800,273.477 339.990,273.200 339.000 C 272.923 338.010,272.539 337.200,272.348 337.200 C 272.157 337.200,272.000 336.924,272.000 336.587 C 272.000 336.251,271.756 335.881,271.457 335.767 C 271.159 335.652,270.680 334.848,270.393 333.979 C 270.106 333.111,269.732 332.400,269.562 332.400 C 269.391 332.400,269.024 331.770,268.746 331.000 C 268.467 330.230,268.095 329.600,267.920 329.600 C 267.744 329.600,267.600 329.324,267.600 328.987 C 267.600 328.651,267.341 328.276,267.024 328.154 C 266.708 328.033,266.331 327.396,266.187 326.740 C 266.043 326.083,265.683 325.453,265.387 325.340 C 265.091 325.226,264.737 324.623,264.600 323.999 C 264.463 323.376,264.002 322.463,263.575 321.972 C 263.149 321.480,262.800 320.835,262.800 320.539 C 262.800 320.242,262.638 320.000,262.439 320.000 C 262.241 320.000,261.890 319.460,261.660 318.800 C 261.430 318.140,261.067 317.600,260.853 317.600 C 260.639 317.600,260.345 317.060,260.200 316.400 C 260.055 315.740,259.804 315.200,259.643 315.200 C 259.481 315.200,259.102 314.570,258.800 313.800 C 258.498 313.030,258.140 312.400,258.006 312.400 C 257.871 312.400,257.533 311.770,257.254 311.000 C 256.976 310.230,256.580 309.600,256.374 309.600 C 256.168 309.600,256.000 309.343,256.000 309.029 C 256.000 308.714,255.764 308.219,255.475 307.929 C 255.187 307.638,254.693 306.815,254.378 306.100 C 254.063 305.385,253.683 304.800,253.534 304.800 C 253.385 304.800,253.142 304.248,252.994 303.573 C 252.846 302.898,252.483 302.253,252.187 302.140 C 251.891 302.026,251.534 301.408,251.393 300.767 C 251.252 300.125,250.987 299.600,250.804 299.600 C 250.621 299.600,250.079 298.790,249.600 297.800 L 248.729 296.000 142.864 296.006 C 84.639 296.009,36.801 296.144,36.558 296.306 " stroke="none" fill="#ccc4bc" fill-rule="evenodd"></path><path id="path2" d="M194.400 24.798 C 193.850 25.276,193.400 25.839,193.400 26.048 C 193.400 26.258,193.199 26.558,192.954 26.715 C 192.709 26.872,192.382 27.404,192.228 27.898 C 192.074 28.391,191.734 29.028,191.474 29.312 C 190.845 29.997,189.726 31.935,189.170 33.300 C 188.923 33.905,188.579 34.400,188.404 34.400 C 188.230 34.400,187.977 34.837,187.843 35.372 C 187.709 35.907,187.374 36.589,187.099 36.889 C 186.391 37.662,185.711 38.757,184.795 40.600 C 184.357 41.480,183.542 42.920,182.983 43.800 C 182.423 44.680,181.863 45.715,181.736 46.100 C 181.610 46.485,181.392 46.800,181.251 46.800 C 181.110 46.800,180.737 47.385,180.422 48.100 C 180.107 48.815,179.613 49.638,179.325 49.929 C 179.036 50.219,178.800 50.714,178.800 51.029 C 178.800 51.343,178.632 51.600,178.426 51.600 C 178.220 51.600,177.824 52.230,177.546 53.000 C 177.267 53.770,176.917 54.400,176.768 54.400 C 176.619 54.400,176.260 54.985,175.971 55.700 C 175.682 56.415,175.345 57.090,175.223 57.200 C 174.901 57.489,174.079 58.816,173.364 60.200 C 173.024 60.860,172.352 62.055,171.873 62.856 C 171.393 63.657,170.381 65.367,169.624 66.656 C 168.867 67.945,168.102 69.060,167.924 69.133 C 167.746 69.207,167.600 69.497,167.600 69.779 C 167.600 70.061,167.251 70.736,166.825 71.278 C 166.398 71.820,165.932 72.731,165.789 73.303 C 165.645 73.874,165.297 74.431,165.015 74.539 C 164.734 74.647,164.381 75.222,164.232 75.816 C 164.083 76.410,163.744 77.139,163.480 77.434 C 162.331 78.722,162.075 79.135,161.575 80.517 C 161.285 81.322,160.968 81.901,160.872 81.806 C 160.776 81.710,160.397 82.209,160.030 82.916 C 159.071 84.757,158.236 86.169,157.968 86.400 C 157.840 86.510,157.481 87.185,157.170 87.900 C 156.859 88.615,156.483 89.200,156.334 89.200 C 156.185 89.200,155.945 89.740,155.800 90.400 C 155.655 91.060,155.385 91.600,155.199 91.600 C 155.014 91.600,154.643 92.275,154.374 93.100 C 154.106 93.925,153.656 94.736,153.375 94.902 C 153.093 95.069,152.747 95.729,152.607 96.369 C 152.466 97.009,152.092 97.633,151.776 97.754 C 151.459 97.876,151.200 98.251,151.200 98.587 C 151.200 98.924,151.011 99.200,150.779 99.200 C 150.548 99.200,150.170 99.740,149.940 100.400 C 149.710 101.060,149.377 101.600,149.200 101.600 C 149.023 101.600,148.677 102.095,148.430 102.700 C 147.968 103.834,146.754 106.047,146.399 106.400 C 146.289 106.510,145.929 107.140,145.600 107.800 C 145.271 108.460,144.911 109.090,144.801 109.200 C 144.455 109.544,143.623 110.943,142.898 112.400 C 142.514 113.170,141.975 114.038,141.701 114.328 C 141.426 114.618,141.091 115.293,140.957 115.828 C 140.823 116.363,140.591 116.800,140.443 116.800 C 140.294 116.800,139.638 117.789,138.986 118.999 C 138.334 120.208,137.679 121.198,137.532 121.199 C 137.384 121.199,137.148 121.725,137.007 122.367 C 136.866 123.008,136.509 123.626,136.213 123.740 C 135.917 123.853,135.554 124.498,135.406 125.173 C 135.258 125.848,134.993 126.400,134.817 126.400 C 134.641 126.400,134.260 126.985,133.971 127.700 C 133.682 128.415,133.325 129.090,133.177 129.200 C 133.029 129.310,132.327 130.435,131.616 131.700 C 130.905 132.965,130.175 134.092,129.993 134.205 C 129.811 134.317,129.547 134.932,129.406 135.571 C 129.266 136.210,128.892 136.833,128.576 136.954 C 128.259 137.076,128.000 137.451,128.000 137.787 C 128.000 138.124,127.840 138.400,127.643 138.400 C 127.447 138.400,127.177 138.837,127.043 139.372 C 126.909 139.907,126.574 140.588,126.299 140.886 C 125.649 141.592,124.536 143.511,123.970 144.900 C 123.723 145.505,123.379 146.000,123.204 146.000 C 123.030 146.000,122.777 146.437,122.643 146.972 C 122.509 147.507,122.174 148.189,121.899 148.487 C 121.300 149.140,120.503 150.479,119.527 152.475 C 119.130 153.286,118.638 154.053,118.434 154.179 C 118.229 154.306,117.947 154.932,117.806 155.571 C 117.666 156.210,117.292 156.833,116.976 156.954 C 116.659 157.076,116.400 157.451,116.400 157.787 C 116.400 158.124,116.265 158.401,116.100 158.403 C 115.741 158.407,114.800 160.344,114.800 161.080 C 114.800 161.366,114.620 161.600,114.400 161.600 C 114.180 161.600,114.000 161.861,114.000 162.180 C 114.000 162.499,113.755 162.904,113.457 163.080 C 113.158 163.256,112.694 164.075,112.426 164.900 C 112.157 165.725,111.808 166.400,111.649 166.400 C 111.491 166.400,111.133 167.030,110.854 167.800 C 110.576 168.570,110.194 169.200,110.006 169.200 C 109.818 169.200,109.548 169.725,109.407 170.367 C 109.266 171.008,108.909 171.626,108.613 171.740 C 108.317 171.853,107.954 172.498,107.806 173.173 C 107.658 173.848,107.415 174.400,107.266 174.400 C 107.117 174.400,106.737 174.985,106.422 175.700 C 106.107 176.415,105.658 177.219,105.425 177.486 C 104.402 178.657,104.138 179.080,103.609 180.400 C 103.300 181.170,102.811 181.944,102.523 182.120 C 102.236 182.296,102.000 182.701,102.000 183.020 C 102.000 183.339,101.854 183.600,101.675 183.600 C 101.496 183.600,101.102 184.230,100.800 185.000 C 100.498 185.770,100.138 186.400,100.000 186.400 C 99.862 186.400,99.502 187.030,99.200 187.800 C 98.898 188.570,98.504 189.200,98.325 189.200 C 98.146 189.200,98.000 189.476,98.000 189.813 C 98.000 190.149,97.750 190.521,97.445 190.638 C 97.139 190.755,96.669 191.638,96.400 192.600 C 96.131 193.562,95.661 194.445,95.355 194.562 C 95.050 194.679,94.800 195.023,94.800 195.326 C 94.800 195.629,94.440 196.293,94.000 196.800 C 93.560 197.307,93.200 197.965,93.200 198.261 C 93.200 198.558,93.042 198.800,92.849 198.800 C 92.655 198.800,92.273 199.340,92.000 200.000 C 91.727 200.660,91.359 201.200,91.183 201.200 C 91.007 201.200,90.748 201.725,90.607 202.367 C 90.466 203.008,90.109 203.626,89.813 203.740 C 89.517 203.853,89.157 204.483,89.013 205.140 C 88.869 205.796,88.509 206.426,88.213 206.540 C 87.917 206.653,87.557 207.283,87.413 207.940 C 87.269 208.596,86.892 209.233,86.576 209.354 C 86.259 209.476,86.000 209.851,86.000 210.187 C 86.000 210.524,85.840 210.800,85.643 210.800 C 85.447 210.800,85.177 211.237,85.043 211.772 C 84.909 212.307,84.574 212.983,84.299 213.275 C 84.025 213.568,83.260 214.840,82.600 216.102 C 81.940 217.364,81.288 218.398,81.152 218.399 C 81.016 218.399,80.669 219.255,80.383 220.300 C 80.096 221.345,79.622 222.344,79.331 222.520 C 79.039 222.696,78.800 223.101,78.800 223.420 C 78.800 223.739,78.648 224.000,78.463 224.000 C 78.278 224.000,77.911 224.720,77.647 225.600 C 77.384 226.480,77.009 227.200,76.815 227.200 C 76.621 227.200,76.254 227.830,76.000 228.600 C 75.746 229.370,75.372 230.000,75.169 230.000 C 74.966 230.000,74.800 230.276,74.800 230.613 C 74.800 230.949,74.541 231.324,74.224 231.446 C 73.908 231.567,73.531 232.204,73.387 232.860 C 73.243 233.517,72.883 234.147,72.587 234.260 C 72.291 234.374,71.937 234.977,71.800 235.600 C 71.663 236.223,71.309 236.826,71.013 236.940 C 70.717 237.053,70.357 237.683,70.213 238.340 C 70.069 238.996,69.709 239.626,69.413 239.740 C 69.117 239.853,68.757 240.483,68.613 241.140 C 68.469 241.796,68.092 242.433,67.776 242.554 C 67.459 242.676,67.200 243.051,67.200 243.387 C 67.200 243.724,67.054 244.000,66.875 244.000 C 66.696 244.000,66.302 244.630,66.000 245.400 C 65.698 246.170,65.326 246.800,65.174 246.800 C 65.022 246.800,64.658 247.385,64.365 248.100 C 64.073 248.815,63.601 249.638,63.317 249.929 C 63.033 250.219,62.800 250.714,62.800 251.029 C 62.800 251.343,62.648 251.600,62.463 251.600 C 62.278 251.600,61.911 252.320,61.647 253.200 C 61.384 254.080,61.003 254.800,60.802 254.800 C 60.601 254.800,60.318 255.432,60.173 256.204 C 60.028 256.977,59.750 257.707,59.555 257.828 C 57.405 259.157,60.334 264.800,63.174 264.800 C 63.628 264.800,64.000 264.980,64.000 265.200 C 64.000 265.464,75.667 265.600,98.200 265.600 C 126.982 265.600,132.400 265.513,132.400 265.049 C 132.400 264.746,132.661 264.282,132.980 264.017 C 133.298 263.752,133.774 262.875,134.036 262.068 C 134.298 261.261,134.744 260.464,135.025 260.298 C 135.307 260.131,135.653 259.471,135.793 258.831 C 135.934 258.191,136.308 257.567,136.624 257.446 C 136.941 257.324,137.200 256.949,137.200 256.613 C 137.200 256.276,137.380 256.000,137.600 256.000 C 137.820 256.000,138.000 255.792,138.000 255.537 C 138.000 255.161,141.722 248.368,143.225 246.000 C 143.434 245.670,143.827 244.950,144.098 244.400 C 144.369 243.850,144.817 243.162,145.095 242.872 C 145.372 242.582,145.709 241.907,145.843 241.372 C 145.977 240.837,146.240 240.400,146.427 240.400 C 146.615 240.400,146.982 239.686,147.243 238.813 C 147.505 237.940,147.867 237.318,148.048 237.429 C 148.229 237.541,148.491 237.175,148.632 236.616 C 148.772 236.057,149.003 235.600,149.146 235.600 C 149.288 235.600,149.659 235.015,149.970 234.300 C 150.281 233.585,150.640 232.910,150.768 232.800 C 151.123 232.494,152.329 230.331,152.830 229.100 C 153.077 228.495,153.426 228.000,153.607 228.000 C 153.788 228.000,154.058 227.448,154.206 226.773 C 154.354 226.098,154.712 225.455,155.002 225.344 C 155.291 225.233,155.648 224.662,155.796 224.075 C 155.943 223.488,156.274 222.878,156.532 222.719 C 156.789 222.559,157.024 222.288,157.054 222.115 C 157.218 221.155,157.734 220.000,157.998 220.000 C 158.166 220.000,158.542 219.415,158.835 218.700 C 159.127 217.985,159.599 217.162,159.883 216.871 C 160.167 216.581,160.400 216.086,160.400 215.771 C 160.400 215.457,160.558 215.200,160.751 215.200 C 160.945 215.200,161.340 214.615,161.629 213.900 C 161.918 213.185,162.255 212.510,162.377 212.400 C 162.785 212.034,164.033 209.815,164.458 208.700 C 164.689 208.095,165.027 207.600,165.208 207.600 C 165.390 207.600,165.746 206.970,166.000 206.200 C 166.254 205.430,166.628 204.800,166.831 204.800 C 167.034 204.800,167.200 204.554,167.200 204.254 C 167.200 203.954,167.549 203.264,167.975 202.722 C 168.402 202.180,168.868 201.269,169.011 200.697 C 169.155 200.126,169.509 199.567,169.798 199.456 C 170.088 199.345,170.446 198.702,170.594 198.027 C 170.742 197.352,170.991 196.800,171.146 196.800 C 171.301 196.800,171.962 195.765,172.614 194.500 C 173.266 193.235,173.914 192.110,174.054 192.000 C 174.387 191.738,176.635 187.775,177.434 186.042 C 177.778 185.295,178.316 184.427,178.630 184.113 C 178.943 183.799,179.200 183.286,179.200 182.971 C 179.200 182.657,179.366 182.400,179.569 182.400 C 179.772 182.400,180.146 181.770,180.400 181.000 C 180.654 180.230,181.014 179.600,181.200 179.600 C 181.386 179.600,181.757 178.925,182.026 178.100 C 182.294 177.275,182.758 176.456,183.057 176.280 C 183.355 176.104,183.600 175.699,183.600 175.380 C 183.600 175.061,183.760 174.800,183.957 174.800 C 184.153 174.800,184.423 174.363,184.557 173.828 C 184.691 173.293,185.026 172.617,185.301 172.325 C 185.575 172.032,186.340 170.760,187.000 169.498 C 187.660 168.236,188.299 167.202,188.420 167.201 C 188.540 167.201,188.867 166.570,189.146 165.800 C 189.424 165.030,189.812 164.400,190.008 164.400 C 190.204 164.400,190.482 163.770,190.626 163.000 C 190.771 162.230,191.021 161.600,191.181 161.600 C 191.342 161.600,191.689 160.880,191.953 160.000 C 192.216 159.120,192.593 158.400,192.790 158.400 C 192.987 158.400,193.376 157.770,193.654 157.000 C 193.933 156.230,194.305 155.600,194.480 155.600 C 194.656 155.600,194.800 155.324,194.800 154.987 C 194.800 154.651,195.059 154.276,195.376 154.154 C 195.692 154.033,196.066 153.409,196.207 152.769 C 196.347 152.129,196.673 151.469,196.931 151.302 C 197.501 150.935,198.216 149.835,199.013 148.100 C 199.342 147.385,199.752 146.800,199.925 146.800 C 200.098 146.800,200.467 146.170,200.746 145.400 C 201.024 144.630,201.420 144.000,201.626 144.000 C 201.832 144.000,202.000 143.754,202.000 143.454 C 202.000 143.154,202.349 142.464,202.775 141.922 C 203.202 141.380,203.671 140.456,203.819 139.868 C 203.966 139.281,204.225 138.800,204.395 138.800 C 204.564 138.800,204.942 138.215,205.235 137.500 C 205.527 136.785,205.999 135.962,206.283 135.671 C 206.567 135.381,206.800 134.886,206.800 134.571 C 206.800 134.257,206.958 134.000,207.151 134.000 C 207.345 134.000,207.740 133.415,208.029 132.700 C 208.318 131.985,208.655 131.310,208.777 131.200 C 209.185 130.834,210.433 128.615,210.858 127.500 C 211.089 126.895,211.427 126.400,211.608 126.400 C 211.790 126.400,212.146 125.770,212.400 125.000 C 212.654 124.230,213.028 123.600,213.231 123.600 C 213.434 123.600,213.600 123.343,213.600 123.029 C 213.600 122.714,213.857 122.201,214.170 121.887 C 214.484 121.573,215.022 120.705,215.366 119.958 C 216.250 118.041,218.434 114.239,218.789 114.000 C 218.953 113.890,219.329 113.125,219.624 112.300 C 219.919 111.475,220.275 110.800,220.415 110.800 C 220.555 110.800,221.170 109.810,221.782 108.600 C 222.394 107.390,223.040 106.400,223.216 106.400 C 223.392 106.400,223.652 105.875,223.793 105.233 C 223.934 104.591,224.398 103.663,224.825 103.172 C 225.251 102.680,225.600 102.035,225.600 101.739 C 225.600 101.442,225.766 101.200,225.969 101.200 C 226.172 101.200,226.546 100.570,226.800 99.800 C 227.054 99.030,227.410 98.400,227.592 98.400 C 227.773 98.400,228.111 97.905,228.342 97.300 C 228.789 96.127,230.038 93.932,230.446 93.600 C 230.581 93.490,230.818 92.996,230.972 92.502 C 231.126 92.009,231.466 91.377,231.726 91.099 C 231.987 90.821,232.740 89.560,233.400 88.298 C 234.060 87.036,234.707 86.002,234.837 86.001 C 234.967 86.001,235.298 85.251,235.572 84.336 C 235.846 83.421,236.337 82.405,236.664 82.079 C 237.255 81.488,237.101 79.647,236.425 79.204 C 236.253 79.092,235.871 78.325,235.576 77.500 C 235.281 76.675,234.929 76.000,234.794 76.000 C 234.660 76.000,234.302 75.370,234.000 74.600 C 233.698 73.830,233.304 73.200,233.125 73.200 C 232.946 73.200,232.800 72.943,232.800 72.629 C 232.800 72.314,232.567 71.819,232.283 71.529 C 231.999 71.238,231.527 70.415,231.235 69.700 C 230.942 68.985,230.562 68.400,230.391 68.400 C 230.219 68.400,229.880 67.905,229.638 67.300 C 229.396 66.695,228.838 65.660,228.398 65.000 C 227.958 64.340,227.326 63.215,226.994 62.500 C 226.661 61.785,226.212 61.200,225.995 61.200 C 225.778 61.200,225.619 61.065,225.643 60.900 C 225.718 60.385,225.120 58.800,224.851 58.800 C 224.710 58.800,224.336 58.215,224.020 57.500 C 223.703 56.785,223.289 56.020,223.099 55.800 C 222.498 55.104,216.400 44.654,216.400 44.320 C 216.400 44.144,216.264 44.000,216.098 44.000 C 215.931 44.000,215.541 43.415,215.230 42.700 C 214.919 41.985,214.560 41.310,214.432 41.200 C 214.107 40.920,213.296 39.616,212.564 38.200 C 212.224 37.540,211.552 36.345,211.073 35.544 C 210.593 34.743,209.581 33.033,208.824 31.744 C 208.067 30.455,207.302 29.340,207.124 29.267 C 206.946 29.193,206.800 28.905,206.800 28.626 C 206.800 27.887,204.619 25.722,203.532 25.383 C 203.019 25.223,202.472 24.891,202.315 24.646 C 201.718 23.714,195.510 23.833,194.400 24.798 " stroke="none" fill="#242424" fill-rule="evenodd"></path><path id="path3" d="M250.000 120.400 C 249.672 121.013,249.696 121.200,250.101 121.200 C 250.392 121.200,250.657 120.840,250.690 120.400 C 250.723 119.960,250.678 119.600,250.589 119.600 C 250.501 119.600,250.235 119.960,250.000 120.400 M247.455 124.200 C 247.292 124.627,247.482 124.791,248.113 124.768 C 248.601 124.751,248.774 124.646,248.498 124.534 C 248.221 124.423,248.097 124.167,248.221 123.966 C 248.345 123.765,248.276 123.600,248.066 123.600 C 247.857 123.600,247.582 123.870,247.455 124.200 M262.578 127.636 C 262.373 127.967,262.444 128.020,262.796 127.802 C 263.189 127.560,263.266 127.744,263.111 128.554 C 262.998 129.145,263.002 129.531,263.120 129.413 C 263.238 129.295,263.710 129.514,264.168 129.899 C 264.993 130.594,264.993 130.592,264.276 129.741 C 263.803 129.182,263.710 128.830,264.006 128.731 C 264.285 128.638,264.156 128.303,263.670 127.864 C 263.079 127.328,262.803 127.271,262.578 127.636 M243.000 132.000 C 243.136 132.220,243.057 132.400,242.824 132.400 C 242.591 132.400,242.400 132.564,242.400 132.765 C 242.400 132.965,242.715 133.083,243.100 133.026 C 243.485 132.970,243.755 132.806,243.700 132.662 C 243.645 132.518,243.600 132.220,243.600 132.000 C 243.600 131.780,243.409 131.600,243.176 131.600 C 242.943 131.600,242.864 131.780,243.000 132.000 M265.893 133.737 C 266.055 133.992,266.191 134.320,266.194 134.467 C 266.197 134.613,266.290 134.793,266.400 134.867 C 266.510 134.940,266.557 134.927,266.503 134.837 C 266.450 134.747,266.589 134.454,266.812 134.186 C 267.104 133.834,266.991 133.639,266.408 133.486 C 265.859 133.343,265.693 133.423,265.893 133.737 M268.088 136.500 C 268.135 137.105,268.326 137.600,268.511 137.600 C 268.696 137.600,268.744 137.768,268.617 137.972 C 268.491 138.177,268.540 138.439,268.727 138.555 C 269.249 138.878,269.130 137.555,268.534 136.417 L 268.001 135.400 268.088 136.500 M269.600 138.751 C 269.600 139.164,269.868 139.724,270.195 139.996 C 270.713 140.426,270.734 140.329,270.356 139.245 C 269.862 137.829,269.600 137.657,269.600 138.751 M238.369 139.100 C 238.353 139.265,238.274 139.760,238.195 140.200 C 238.061 140.940,238.089 140.948,238.565 140.306 C 238.848 139.925,239.235 139.745,239.426 139.906 C 239.617 140.068,239.533 139.885,239.238 139.500 C 238.657 138.742,238.417 138.631,238.369 139.100 M235.334 144.627 C 235.202 144.972,235.275 145.435,235.497 145.657 C 235.768 145.928,235.900 145.722,235.900 145.030 C 235.900 143.860,235.687 143.708,235.334 144.627 M273.170 144.500 C 272.830 145.646,272.874 146.402,273.267 146.159 C 273.583 145.963,273.653 146.086,273.481 146.534 C 273.340 146.900,273.380 147.200,273.570 147.200 C 274.209 147.200,274.357 146.062,273.781 145.584 C 273.466 145.323,273.307 144.950,273.428 144.755 C 273.549 144.560,273.547 144.400,273.424 144.400 C 273.301 144.400,273.187 144.445,273.170 144.500 M274.400 147.586 C 274.400 147.798,274.805 148.184,275.300 148.444 C 276.195 148.914,276.196 148.912,275.438 148.058 C 274.591 147.105,274.400 147.018,274.400 147.586 M276.163 151.690 C 276.220 151.970,276.432 152.203,276.633 152.206 C 276.835 152.209,277.270 152.379,277.600 152.583 C 278.099 152.891,278.116 152.850,277.703 152.340 C 277.430 152.003,277.340 151.569,277.503 151.376 C 277.667 151.184,277.503 151.253,277.139 151.530 C 276.688 151.873,276.411 151.897,276.269 151.607 C 276.154 151.372,276.107 151.410,276.163 151.690 M277.820 154.422 C 278.673 155.365,278.629 155.362,278.629 154.479 C 278.629 154.058,278.313 153.734,277.872 153.700 C 277.147 153.646,277.145 153.676,277.820 154.422 M228.455 155.733 C 228.120 156.137,228.157 156.267,228.606 156.267 C 228.933 156.267,229.200 156.106,229.200 155.910 C 229.200 155.713,229.408 155.681,229.662 155.838 C 229.948 156.015,230.015 155.948,229.838 155.662 C 229.463 155.054,228.999 155.078,228.455 155.733 M279.733 156.600 C 279.733 156.930,279.903 157.200,280.109 157.200 C 280.316 157.200,280.389 157.452,280.270 157.761 C 280.139 158.102,280.396 158.424,280.928 158.584 C 281.759 158.834,281.764 158.861,281.029 159.153 C 280.296 159.445,280.294 159.474,280.986 159.739 C 281.965 160.115,282.284 159.715,281.671 158.881 C 281.396 158.506,280.958 157.705,280.698 157.100 C 280.179 155.893,279.733 155.662,279.733 156.600 M227.022 157.888 C 226.876 158.266,226.886 158.448,227.042 158.291 C 227.198 158.135,227.597 158.230,227.929 158.503 C 228.454 158.936,228.469 158.885,228.051 158.100 C 227.475 157.019,227.364 156.996,227.022 157.888 M284.877 165.574 C 285.143 166.000,285.505 166.258,285.683 166.149 C 285.861 166.039,285.748 165.690,285.432 165.374 C 284.612 164.555,284.309 164.665,284.877 165.574 M286.358 168.366 C 286.665 168.560,286.820 168.971,286.702 169.278 C 286.569 169.626,286.773 169.858,287.244 169.893 C 288.115 169.959,288.153 169.834,287.586 168.774 C 287.358 168.348,286.863 168.003,286.486 168.006 C 285.934 168.011,285.909 168.081,286.358 168.366 M220.500 168.998 C 219.841 169.747,219.866 170.267,220.562 170.267 C 220.897 170.267,221.031 170.024,220.894 169.668 C 220.746 169.281,220.828 169.170,221.127 169.355 C 221.430 169.542,221.508 169.426,221.353 169.021 C 221.071 168.286,221.126 168.287,220.500 168.998 M218.416 172.981 C 218.151 173.300,218.018 173.885,218.121 174.281 C 218.269 174.853,218.317 174.819,218.354 174.113 C 218.383 173.548,218.594 173.300,218.933 173.430 C 219.236 173.546,219.467 173.367,219.467 173.017 C 219.467 172.242,219.041 172.227,218.416 172.981 M293.456 180.291 C 293.696 181.210,295.200 182.791,295.200 182.124 C 295.200 181.904,294.757 181.209,294.216 180.579 C 293.372 179.597,293.263 179.556,293.456 180.291 M295.705 183.251 C 295.833 183.609,295.814 184.059,295.662 184.251 C 295.511 184.443,295.462 184.558,295.554 184.506 C 295.646 184.455,295.958 184.725,296.248 185.106 C 296.698 185.700,296.720 185.604,296.399 184.446 C 296.193 183.701,295.900 182.981,295.749 182.846 C 295.597 182.711,295.577 182.893,295.705 183.251 M221.584 186.475 C 222.033 186.957,222.423 187.497,222.450 187.675 C 222.478 187.854,222.545 188.180,222.600 188.400 C 222.655 188.620,222.722 188.980,222.750 189.200 C 222.860 190.079,223.586 189.534,223.511 188.629 C 223.466 188.095,223.321 187.725,223.189 187.807 C 223.056 187.889,222.634 187.426,222.251 186.778 C 221.868 186.130,221.378 185.600,221.162 185.600 C 220.946 185.600,221.136 185.994,221.584 186.475 M298.321 188.266 C 298.217 188.670,298.432 189.315,298.799 189.700 C 299.348 190.275,299.467 190.293,299.467 189.800 C 299.467 189.470,299.306 189.200,299.110 189.200 C 298.913 189.200,298.842 189.056,298.950 188.881 C 299.058 188.705,299.004 188.330,298.829 188.047 C 298.591 187.662,298.463 187.717,298.321 188.266 M223.600 190.163 C 223.600 190.522,224.433 192.128,224.761 192.400 C 224.893 192.510,225.237 193.050,225.525 193.600 C 225.813 194.150,226.533 194.946,227.125 195.368 L 228.200 196.136 227.296 195.138 C 226.799 194.590,226.529 194.004,226.696 193.837 C 226.863 193.670,226.730 193.593,226.400 193.667 C 226.031 193.749,225.821 193.531,225.856 193.100 C 225.886 192.715,225.740 192.400,225.532 192.400 C 225.323 192.400,225.220 192.265,225.303 192.100 C 225.386 191.935,225.037 191.366,224.527 190.837 C 224.017 190.307,223.600 190.004,223.600 190.163 M301.837 194.600 C 302.197 195.150,302.660 195.600,302.865 195.600 C 303.305 195.600,301.944 193.631,301.491 193.613 C 301.321 193.606,301.476 194.050,301.837 194.600 M227.200 196.813 C 227.200 197.039,227.469 197.328,227.798 197.454 C 228.126 197.581,228.296 197.845,228.174 198.042 C 228.052 198.239,228.143 198.400,228.376 198.400 C 228.609 198.400,228.800 198.046,228.800 197.613 C 228.800 197.042,228.616 196.896,228.134 197.081 C 227.687 197.252,227.564 197.183,227.758 196.868 C 227.917 196.611,227.857 196.400,227.624 196.400 C 227.391 196.400,227.200 196.586,227.200 196.813 M230.277 201.856 C 230.399 202.174,230.670 202.377,230.879 202.307 C 231.532 202.089,231.433 201.481,230.728 201.378 C 230.286 201.313,230.131 201.477,230.277 201.856 M231.261 203.775 C 231.518 204.339,231.886 204.800,232.078 204.800 C 232.488 204.800,231.782 203.360,231.195 202.997 C 230.966 202.855,230.994 203.189,231.261 203.775 M233.188 206.416 C 232.790 206.668,232.761 206.790,233.100 206.794 C 233.375 206.797,233.600 207.059,233.600 207.376 C 233.600 207.693,233.764 208.054,233.965 208.178 C 234.166 208.302,234.280 207.947,234.219 207.389 C 234.078 206.105,233.918 205.954,233.188 206.416 M309.870 208.961 C 309.620 209.613,309.956 210.074,310.456 209.766 C 310.910 209.485,310.900 208.400,310.443 208.400 C 310.246 208.400,309.989 208.652,309.870 208.961 M234.612 209.613 C 235.368 210.449,235.812 210.667,235.400 210.000 C 235.264 209.780,235.373 209.600,235.643 209.600 C 236.389 209.600,235.826 209.197,234.804 209.001 C 233.929 208.832,233.923 208.852,234.612 209.613 M235.600 211.400 C 235.600 211.510,235.967 211.967,236.415 212.415 C 236.863 212.863,237.122 213.403,236.991 213.615 C 236.860 213.827,236.954 214.000,237.200 214.000 C 237.446 214.000,237.519 214.208,237.362 214.462 C 237.182 214.754,237.252 214.815,237.554 214.628 C 238.116 214.281,237.798 213.041,236.871 211.957 C 236.260 211.245,235.600 210.955,235.600 211.400 M238.269 215.600 C 238.610 217.028,239.600 218.433,239.600 217.489 C 239.600 217.110,239.455 216.800,239.277 216.800 C 239.100 216.800,238.746 216.305,238.492 215.700 C 238.076 214.709,238.054 214.699,238.269 215.600 M315.373 218.879 C 315.207 219.165,315.219 219.267,315.399 219.103 C 315.579 218.940,315.997 219.030,316.328 219.303 C 316.818 219.708,316.895 219.693,316.740 219.225 C 316.479 218.436,315.737 218.248,315.373 218.879 M317.050 220.719 C 316.750 221.204,317.510 222.226,317.878 221.834 C 318.055 221.645,317.974 221.410,317.698 221.311 C 317.421 221.212,317.297 220.967,317.421 220.766 C 317.545 220.565,317.557 220.400,317.447 220.400 C 317.337 220.400,317.158 220.544,317.050 220.719 M320.400 226.953 C 320.400 227.258,320.777 227.605,321.237 227.726 C 322.040 227.936,322.045 227.913,321.375 227.172 C 320.543 226.254,320.400 226.221,320.400 226.953 M321.600 229.124 C 321.600 229.339,321.885 229.624,322.233 229.757 C 322.623 229.907,322.806 229.818,322.708 229.525 C 322.509 228.927,321.600 228.598,321.600 229.124 M324.000 232.529 C 324.000 232.851,324.270 233.218,324.600 233.345 C 324.930 233.471,325.200 233.478,325.200 233.359 C 325.200 233.240,324.930 232.873,324.600 232.543 C 324.080 232.022,324.000 232.021,324.000 232.529 M325.600 235.590 C 325.600 235.842,325.780 235.936,326.000 235.800 C 326.560 235.454,326.500 236.140,325.920 236.720 C 325.547 237.093,325.596 237.200,326.144 237.200 C 326.574 237.200,326.736 237.380,326.562 237.662 C 326.384 237.950,326.452 238.015,326.745 237.834 C 327.002 237.675,327.080 237.332,326.917 237.072 C 326.754 236.813,326.616 236.345,326.611 236.034 C 326.598 235.364,325.600 234.925,325.600 235.590 M252.962 239.938 C 253.119 240.192,253.049 240.400,252.808 240.400 C 252.525 240.400,252.552 240.599,252.884 240.958 C 253.168 241.265,253.571 241.412,253.780 241.285 C 253.997 241.153,253.953 240.984,253.678 240.893 C 253.412 240.804,253.289 240.579,253.404 240.393 C 253.519 240.207,253.402 239.925,253.145 239.766 C 252.852 239.585,252.784 239.650,252.962 239.938 M330.604 244.393 C 330.466 244.617,330.563 244.800,330.819 244.800 C 331.076 244.800,331.182 245.070,331.055 245.400 C 330.929 245.730,330.999 246.000,331.213 246.000 C 331.708 246.000,331.721 244.522,331.228 244.217 C 331.023 244.091,330.742 244.170,330.604 244.393 M332.143 245.908 C 332.290 246.145,332.110 246.398,331.743 246.470 C 331.147 246.586,331.141 246.655,331.689 247.108 C 332.202 247.534,332.337 247.485,332.514 246.809 C 332.630 246.364,332.534 245.883,332.301 245.739 C 332.062 245.591,331.993 245.665,332.143 245.908 M257.422 248.365 C 257.274 248.604,257.388 248.803,257.676 248.806 C 258.093 248.811,258.090 248.882,257.657 249.156 C 257.276 249.398,257.247 249.582,257.560 249.775 C 257.805 249.927,258.118 249.757,258.256 249.398 C 258.558 248.612,257.828 247.708,257.422 248.365 M333.569 248.500 C 333.299 249.385,333.396 249.867,333.845 249.867 C 334.150 249.867,334.400 249.717,334.400 249.533 C 334.400 249.350,334.209 249.200,333.976 249.200 C 333.743 249.200,333.664 249.020,333.800 248.800 C 333.936 248.580,333.947 248.400,333.824 248.400 C 333.701 248.400,333.586 248.445,333.569 248.500 M334.259 251.104 C 334.156 251.272,334.325 251.756,334.635 252.181 C 334.946 252.605,335.200 252.793,335.200 252.596 C 335.200 252.400,335.416 252.456,335.680 252.720 C 336.468 253.508,336.859 253.263,336.100 252.457 C 335.715 252.049,335.220 251.734,335.000 251.757 C 334.780 251.781,334.645 251.575,334.700 251.300 C 334.811 250.746,334.552 250.631,334.259 251.104 M259.077 252.656 C 259.199 252.974,259.470 253.177,259.679 253.107 C 260.332 252.889,260.233 252.281,259.528 252.178 C 259.086 252.113,258.931 252.277,259.077 252.656 M260.236 253.942 C 260.120 254.129,260.475 254.488,261.025 254.739 C 261.954 255.162,261.995 255.137,261.598 254.397 C 261.149 253.557,260.589 253.370,260.236 253.942 M337.498 256.320 C 337.639 256.694,338.025 257.270,338.355 257.600 C 338.889 258.133,338.924 258.119,338.678 257.467 C 338.525 257.064,338.400 256.589,338.400 256.410 C 338.400 256.232,338.139 255.986,337.820 255.863 C 337.405 255.704,337.314 255.834,337.498 256.320 M339.287 260.062 C 339.372 260.316,339.852 260.676,340.354 260.861 C 341.019 261.107,341.219 261.063,341.092 260.699 C 340.996 260.425,340.603 260.257,340.218 260.327 C 339.804 260.402,339.627 260.280,339.783 260.027 C 339.929 259.792,339.842 259.600,339.590 259.600 C 339.339 259.600,339.203 259.808,339.287 260.062 M266.138 264.987 C 266.392 265.530,266.662 265.794,266.738 265.574 C 266.934 265.005,266.495 264.000,266.050 264.000 C 265.841 264.000,265.879 264.435,266.138 264.987 M267.206 266.700 C 267.224 267.577,267.988 268.159,267.994 267.300 C 267.997 266.805,267.820 266.400,267.600 266.400 C 267.380 266.400,267.203 266.535,267.206 266.700 M343.600 267.637 C 343.600 267.910,343.718 268.015,343.863 267.870 C 344.008 267.725,344.397 267.830,344.728 268.103 C 345.221 268.510,345.294 268.491,345.132 268.000 C 344.887 267.259,343.600 266.955,343.600 267.637 M346.050 270.540 C 345.681 270.985,345.811 271.236,346.693 271.773 L 347.800 272.447 346.898 271.658 C 346.285 271.121,346.156 270.811,346.498 270.689 C 346.774 270.590,346.891 270.391,346.757 270.245 C 346.623 270.100,346.305 270.232,346.050 270.540 M270.400 272.641 C 270.400 273.013,271.982 273.553,272.171 273.247 C 272.292 273.051,271.943 272.806,271.395 272.701 C 270.848 272.597,270.400 272.570,270.400 272.641 M348.104 273.892 C 347.480 274.108,348.463 275.203,349.271 275.194 C 349.630 275.190,349.658 275.093,349.360 274.894 C 349.118 274.732,348.848 274.402,348.760 274.160 C 348.672 273.918,348.377 273.797,348.104 273.892 M348.696 276.707 C 348.844 277.091,349.010 277.171,349.099 276.902 C 349.183 276.651,349.555 276.554,349.926 276.686 C 350.297 276.819,350.489 276.803,350.354 276.651 C 349.777 276.003,348.443 276.048,348.696 276.707 M350.284 278.400 C 350.121 279.023,350.266 279.193,350.937 279.168 C 351.412 279.151,351.585 279.049,351.322 278.943 C 351.060 278.836,350.944 278.490,351.065 278.174 C 351.186 277.858,351.107 277.600,350.889 277.600 C 350.672 277.600,350.399 277.960,350.284 278.400 M350.833 279.746 C 351.640 280.451,352.952 280.873,352.451 280.265 C 352.149 279.899,351.624 279.600,351.284 279.600 C 350.945 279.600,350.742 279.666,350.833 279.746 M352.259 281.904 C 352.156 282.072,352.325 282.556,352.635 282.981 C 352.946 283.405,353.203 283.584,353.206 283.376 C 353.209 283.169,353.367 283.244,353.556 283.543 C 353.796 283.922,353.983 283.952,354.174 283.642 C 354.335 283.382,353.990 283.024,353.338 282.776 C 352.448 282.438,352.344 282.280,352.814 281.983 C 353.173 281.756,353.216 281.610,352.924 281.606 C 352.662 281.603,352.363 281.737,352.259 281.904 M355.026 286.358 C 354.904 286.555,355.072 287.230,355.400 287.858 C 355.727 288.486,355.996 288.781,355.998 288.513 C 355.999 288.244,356.225 288.080,356.500 288.147 C 356.775 288.214,356.864 288.193,356.698 288.100 C 356.531 288.008,356.489 287.780,356.603 287.595 C 356.718 287.409,356.425 287.135,355.953 286.985 C 355.279 286.771,355.213 286.637,355.647 286.362 C 356.009 286.133,356.036 286.010,355.724 286.006 C 355.462 286.003,355.148 286.161,355.026 286.358 M279.232 287.261 C 279.733 288.196,280.290 288.501,280.596 288.007 C 280.734 287.783,280.567 287.600,280.224 287.600 C 279.479 287.600,279.392 286.947,280.100 286.674 C 280.375 286.568,280.209 286.500,279.730 286.524 C 279.033 286.557,278.934 286.703,279.232 287.261 M281.128 289.805 C 280.744 290.189,282.598 293.563,283.200 293.576 C 283.614 293.584,283.655 293.495,283.332 293.290 C 283.075 293.126,282.805 292.731,282.732 292.412 C 282.659 292.093,282.291 291.482,281.914 291.055 C 281.536 290.628,281.322 290.126,281.437 289.939 C 281.667 289.568,281.456 289.477,281.128 289.805 M358.748 292.537 C 358.993 292.832,359.075 293.192,358.930 293.337 C 358.785 293.482,358.967 293.600,359.333 293.600 C 359.700 293.600,360.000 293.810,360.000 294.067 C 360.000 294.323,360.108 294.426,360.239 294.294 C 360.526 294.007,359.150 292.031,358.651 292.013 C 358.459 292.006,358.503 292.242,358.748 292.537 M360.518 295.455 C 360.563 296.303,362.000 297.611,362.000 296.803 C 362.000 296.582,361.848 296.400,361.661 296.400 C 361.475 296.400,361.131 295.995,360.898 295.500 C 360.481 294.616,360.474 294.615,360.518 295.455 M363.194 299.803 C 364.787 301.721,364.921 301.845,364.486 300.996 C 364.259 300.553,363.652 299.834,363.137 299.398 C 362.233 298.634,362.235 298.648,363.194 299.803 M369.338 309.866 C 369.485 310.122,369.422 310.393,369.199 310.467 C 368.975 310.542,369.199 310.856,369.696 311.166 C 370.548 311.696,370.565 311.687,370.000 311.003 C 369.670 310.604,369.460 310.200,369.533 310.105 C 369.607 310.011,369.533 309.813,369.369 309.667 C 369.206 309.520,369.192 309.610,369.338 309.866 M369.823 312.363 C 369.705 312.553,370.004 312.812,370.487 312.939 C 371.636 313.239,371.745 313.083,370.800 312.493 C 370.381 312.231,369.941 312.172,369.823 312.363 M300.921 324.256 C 301.475 324.418,301.539 324.592,301.195 325.006 C 300.851 325.421,300.948 325.651,301.622 326.012 C 302.336 326.394,302.435 326.381,302.159 325.940 C 301.973 325.643,301.816 325.133,301.811 324.807 C 301.805 324.480,301.440 324.175,301.000 324.130 C 300.339 324.060,300.326 324.083,300.921 324.256 M303.292 329.675 C 303.491 330.273,304.400 330.602,304.400 330.076 C 304.400 329.861,304.115 329.576,303.767 329.443 C 303.377 329.293,303.194 329.382,303.292 329.675 M304.800 332.370 C 304.800 332.501,305.167 332.837,305.616 333.117 C 306.064 333.397,306.306 333.828,306.154 334.075 C 305.979 334.357,306.058 334.412,306.364 334.222 C 306.735 333.993,306.702 333.754,306.225 333.228 C 305.880 332.847,305.689 332.445,305.799 332.334 C 305.910 332.224,305.730 332.133,305.400 332.133 C 305.070 332.133,304.800 332.240,304.800 332.370 M308.636 339.097 C 308.509 339.224,308.776 339.588,309.229 339.906 C 309.690 340.229,309.956 340.738,309.831 341.062 C 309.707 341.386,309.784 341.534,310.005 341.397 C 310.222 341.263,310.400 340.983,310.400 340.776 C 310.400 340.238,308.912 338.822,308.636 339.097 M312.669 345.488 C 312.535 345.706,312.874 346.306,313.424 346.823 C 314.020 347.382,314.328 348.012,314.188 348.381 C 313.999 348.877,314.053 348.901,314.456 348.500 C 314.829 348.130,314.843 347.883,314.511 347.551 C 314.264 347.304,314.109 346.899,314.166 346.651 C 314.222 346.403,314.184 346.362,314.081 346.561 C 313.978 346.759,313.673 346.510,313.403 346.007 C 313.134 345.503,312.804 345.270,312.669 345.488 M317.428 353.885 C 318.157 354.614,319.360 354.982,318.974 354.358 C 318.848 354.154,318.577 354.091,318.372 354.217 C 318.168 354.344,318.000 354.167,318.000 353.824 C 318.000 353.481,317.717 353.200,317.371 353.200 C 316.822 353.200,316.829 353.286,317.428 353.885 M318.484 355.934 C 318.656 356.821,319.420 356.927,319.485 356.072 C 319.515 355.664,319.277 355.333,318.954 355.333 C 318.631 355.333,318.419 355.603,318.484 355.934 M321.800 357.618 C 318.725 358.243,327.738 358.430,355.400 358.317 L 385.000 358.195 354.133 358.097 C 337.157 358.044,323.207 357.859,323.133 357.687 C 323.060 357.515,322.460 357.484,321.800 357.618 M338.870 357.500 C 347.159 357.560,360.839 357.560,369.270 357.500 C 377.702 357.440,370.920 357.390,354.200 357.390 C 337.480 357.390,330.582 357.439,338.870 357.500 M391.000 357.589 C 391.574 357.827,391.066 357.967,389.200 358.083 C 386.822 358.232,386.891 358.248,390.000 358.277 C 391.870 358.293,393.059 358.220,392.642 358.113 C 392.033 357.957,391.994 357.850,392.442 357.566 C 392.824 357.324,392.559 357.219,391.600 357.234 C 390.471 357.252,390.355 357.321,391.000 357.589 " stroke="none" fill="#ec5c24" fill-rule="evenodd"></path><path id="path4" d="" stroke="none" fill="#487870" fill-rule="evenodd"></path></g></svg>